<?xml version="1.0" standalone="yes"?>

<svg version="1.1" viewBox="0.0 0.0 1152.0 864.0" fill="none" stroke="none" stroke-linecap="square" stroke-miterlimit="10" xmlns="http://www.w3.org/2000/svg" xmlns:xlink="http://www.w3.org/1999/xlink"><clipPath id="p.0"><path d="m0 0l1152.0 0l0 864.0l-1152.0 0l0 -864.0z" clip-rule="nonzero"></path></clipPath><g clip-path="url(#p.0)"><path fill="#000000" fill-opacity="0.0" d="m0 0l1152.0 0l0 864.0l-1152.0 0z" fill-rule="evenodd"></path><path fill="#cfe2f3" d="m90.0 116.0l150.01575 0l0 93.98425l-150.01575 0z" fill-rule="evenodd"></path><path stroke="#000000" stroke-width="2.0" stroke-linejoin="round" stroke-linecap="butt" d="m90.0 116.0l150.01575 0l0 93.98425l-150.01575 0z" fill-rule="evenodd"></path><path fill="#000000" d="m116.21001 158.91212l-1.59375 -9.671875l1.609375 0l0.828125 5.328125q0.140625 0.875 0.34375 2.84375q0.46875 -1.015625 1.203125 -2.359375l3.234375 -5.8125l1.75 0l-5.546875 9.671875l-1.828125 0zm9.21875 -11.484375l0.40625 -1.875l1.625 0l-0.390625 1.875l-1.640625 0zm-2.390625 11.484375l2.015625 -9.671875l1.65625 0l-2.03125 9.671875l-1.640625 0zm10.722946 -1.40625q-1.40625 1.625 -2.953125 1.625q-1.375 0 -2.296875 -1.015625q-0.90625 -1.015625 -0.90625 -2.953125q0 -1.765625 0.71875 -3.21875q0.734375 -1.46875 1.8125 -2.1875q1.09375 -0.734375 2.1875 -0.734375q1.796875 0 2.71875 1.734375l1.09375 -5.203125l1.640625 0l-2.78125 13.359375l-1.53125 0l0.296875 -1.40625zm-4.515625 -2.640625q0 1.0 0.203125 1.59375q0.203125 0.578125 0.671875 0.96875q0.484375 0.375 1.171875 0.375q1.109375 0 2.03125 -1.15625q1.21875 -1.546875 1.21875 -3.828125q0 -1.140625 -0.609375 -1.78125q-0.59375 -0.65625 -1.515625 -0.65625q-0.59375 0 -1.078125 0.265625q-0.484375 0.265625 -0.96875 0.90625q-0.46875 0.625 -0.796875 1.59375q-0.328125 0.96875 -0.328125 1.71875zm15.469467 0.765625l1.609375 0.15625q-0.34375 1.1875 -1.59375 2.265625q-1.234375 1.078125 -2.96875 1.078125q-1.0625 0 -1.96875 -0.5q-0.890625 -0.5 -1.359375 -1.4375q-0.46875 -0.953125 -0.46875 -2.15625q0 -1.59375 0.734375 -3.078125q0.734375 -1.484375 1.890625 -2.203125q1.171875 -0.734375 2.53125 -0.734375q1.734375 0 2.765625 1.078125q1.03125 1.0625 1.03125 2.921875q0 0.71875 -0.125 1.46875l-7.125 0q-0.046875 0.28125 -0.046875 0.5q0 1.359375 0.625 2.078125q0.625 0.71875 1.53125 0.71875q0.84375 0 1.65625 -0.546875q0.828125 -0.5625 1.28125 -1.609375zm-4.78125 -2.40625l5.421875 0q0.015625 -0.25 0.015625 -0.359375q0 -1.234375 -0.625 -1.890625q-0.625 -0.671875 -1.59375 -0.671875q-1.0625 0 -1.9375 0.734375q-0.859375 0.71875 -1.28125 2.1875zm8.344467 2.015625q0 -2.828125 1.671875 -4.6875q1.375 -1.53125 3.609375 -1.53125q1.75 0 2.8125 1.09375q1.078125 1.09375 1.078125 2.953125q0 1.65625 -0.671875 3.09375q-0.671875 1.4375 -1.921875 2.203125q-1.25 0.765625 -2.625 0.765625q-1.125 0 -2.046875 -0.484375q-0.921875 -0.484375 -1.421875 -1.359375q-0.484375 -0.890625 -0.484375 -2.046875zm1.65625 -0.15625q0 1.359375 0.65625 2.0625q0.65625 0.703125 1.65625 0.703125q0.53125 0 1.046875 -0.203125q0.53125 -0.21875 0.96875 -0.65625q0.453125 -0.4375 0.765625 -1.0q0.3125 -0.5625 0.5 -1.203125q0.28125 -0.90625 0.28125 -1.734375q0 -1.3125 -0.65625 -2.03125q-0.65625 -0.734375 -1.65625 -0.734375q-0.78125 0 -1.421875 0.375q-0.625 0.375 -1.140625 1.09375q-0.515625 0.703125 -0.765625 1.640625q-0.234375 0.9375 -0.234375 1.6875zm13.391342 3.828125l0.71875 -3.40625l-5.453125 0l0.34375 -1.625l7.484375 -8.328125l1.34375 0l-1.765625 8.5l1.875 0l-0.3125 1.453125l-1.875 0l-0.71875 3.40625l-1.640625 0zm1.015625 -4.859375l1.171875 -5.578125l-4.984375 5.578125l3.8125 0zm4.266342 4.859375l2.796875 -13.359375l1.640625 0l-2.78125 13.359375l-1.65625 0zm6.613571 -11.484375l0.40625 -1.875l1.625 0l-0.390625 1.875l-1.640625 0zm-2.390625 11.484375l2.015625 -9.671875l1.65625 0l-2.03125 9.671875l-1.640625 0zm4.207321 0l2.015625 -9.671875l1.5 0l-0.359375 1.6875q0.96875 -1.0 1.8125 -1.453125q0.859375 -0.453125 1.734375 -0.453125q1.1875 0 1.84375 0.640625q0.671875 0.625 0.671875 1.703125q0 0.53125 -0.234375 1.6875l-1.234375 5.859375l-1.640625 0l1.28125 -6.125q0.1875 -0.890625 0.1875 -1.328125q0 -0.484375 -0.328125 -0.78125q-0.328125 -0.296875 -0.953125 -0.296875q-1.28125 0 -2.265625 0.90625q-0.984375 0.90625 -1.453125 3.125l-0.9375 4.5l-1.640625 0zm16.969467 -1.75q-1.734375 1.96875 -3.5625 1.96875q-1.109375 0 -1.796875 -0.640625q-0.6875 -0.640625 -0.6875 -1.578125q0 -0.609375 0.296875 -2.09375l1.171875 -5.578125l1.65625 0l-1.296875 6.1875q-0.171875 0.765625 -0.171875 1.203125q0 0.546875 0.328125 0.859375q0.34375 0.296875 0.984375 0.296875q0.703125 0 1.359375 -0.328125q0.65625 -0.34375 1.125 -0.921875q0.484375 -0.578125 0.796875 -1.359375q0.1875 -0.5 0.453125 -1.765625l0.875 -4.171875l1.65625 0l-2.03125 9.671875l-1.515625 0l0.359375 -1.75zm3.1257172 1.75l4.21875 -4.90625l-2.421875 -4.765625l1.828125 0l0.8125 1.71875q0.453125 0.96875 0.828125 1.84375l2.78125 -3.5625l2.015625 0l-4.0625 4.890625l2.4375 4.78125l-1.8125 0l-0.96875 -1.96875q-0.3125 -0.625 -0.703125 -1.5625l-2.875 3.53125l-2.078125 0zm10.453125 0q0.25 -1.1875 0.703125 -2.0q0.453125 -0.8125 1.203125 -1.53125q0.75 -0.71875 2.875 -2.421875q1.296875 -1.03125 1.765625 -1.53125q0.6875 -0.703125 1.0 -1.390625q0.203125 -0.46875 0.203125 -1.015625q0 -0.90625 -0.65625 -1.546875q-0.640625 -0.65625 -1.59375 -0.65625q-0.9375 0 -1.640625 0.65625q-0.703125 0.65625 -1.0 2.09375l-1.609375 -0.234375q0.234375 -1.78125 1.375 -2.796875q1.140625 -1.03125 2.84375 -1.03125q1.140625 0 2.0625 0.46875q0.9375 0.46875 1.390625 1.328125q0.46875 0.859375 0.46875 1.765625q0 1.328125 -0.953125 2.5625q-0.578125 0.765625 -3.421875 3.015625q-1.21875 0.96875 -1.8125 1.59375q-0.59375 0.609375 -0.90625 1.15625l5.984375 0l-0.3125 1.515625l-7.96875 0z" fill-rule="nonzero"></path><path fill="#000000" d="m131.33702 180.91212l-3.0625 -9.671875l2.484375 0l1.8125 6.34375l1.671875 -6.34375l2.46875 0l1.609375 6.34375l1.859375 -6.34375l2.515625 0l-3.109375 9.671875l-2.453125 0l-1.671875 -6.21875l-1.640625 6.21875l-2.484375 0zm18.308304 -3.078125l2.546875 0.421875q-0.484375 1.40625 -1.546875 2.140625q-1.0625 0.734375 -2.65625 0.734375q-2.515625 0 -3.734375 -1.65625q-0.953125 -1.3125 -0.953125 -3.328125q0 -2.40625 1.25 -3.765625q1.265625 -1.359375 3.1875 -1.359375q2.15625 0 3.40625 1.421875q1.25 1.421875 1.1875 4.375l-6.40625 0q0.03125 1.140625 0.609375 1.78125q0.59375 0.625 1.484375 0.625q0.59375 0 1.0 -0.328125q0.421875 -0.328125 0.625 -1.0625zm0.15625 -2.59375q-0.03125 -1.109375 -0.578125 -1.6875q-0.546875 -0.578125 -1.328125 -0.578125q-0.84375 0 -1.390625 0.609375q-0.546875 0.609375 -0.53125 1.65625l3.828125 0zm4.516342 5.671875l0 -13.359375l2.5625 0l0 4.8125q1.171875 -1.34375 2.796875 -1.34375q1.765625 0 2.921875 1.28125q1.15625 1.28125 1.15625 3.671875q0 2.484375 -1.1875 3.828125q-1.171875 1.328125 -2.859375 1.328125q-0.828125 0 -1.640625 -0.40625q-0.796875 -0.421875 -1.375 -1.234375l0 1.421875l-2.375 0zm2.53125 -5.046875q0 1.5 0.484375 2.21875q0.65625 1.03125 1.765625 1.03125q0.84375 0 1.4375 -0.71875q0.59375 -0.734375 0.59375 -2.296875q0 -1.65625 -0.609375 -2.390625q-0.59375 -0.734375 -1.53125 -0.734375q-0.921875 0 -1.53125 0.71875q-0.609375 0.71875 -0.609375 2.171875zm17.411606 -1.765625l-2.53125 0.453125q-0.125 -0.75 -0.578125 -1.125q-0.453125 -0.390625 -1.171875 -0.390625q-0.953125 0 -1.53125 0.65625q-0.5625 0.65625 -0.5625 2.203125q0 1.734375 0.578125 2.4375q0.578125 0.703125 1.546875 0.703125q0.734375 0 1.203125 -0.40625q0.46875 -0.421875 0.65625 -1.421875l2.515625 0.421875q-0.390625 1.734375 -1.515625 2.625q-1.109375 0.875 -2.96875 0.875q-2.125 0 -3.390625 -1.328125q-1.25 -1.34375 -1.25 -3.71875q0 -2.390625 1.265625 -3.71875q1.265625 -1.34375 3.421875 -1.34375q1.765625 0 2.796875 0.765625q1.046875 0.75 1.515625 2.3125zm3.8444672 0.09375l-2.328125 -0.421875q0.40625 -1.40625 1.359375 -2.078125q0.953125 -0.671875 2.84375 -0.671875q1.703125 0 2.546875 0.40625q0.84375 0.40625 1.171875 1.03125q0.34375 0.625 0.34375 2.28125l-0.015625 3.0q0 1.265625 0.109375 1.875q0.125 0.609375 0.46875 1.296875l-2.53125 0q-0.109375 -0.25 -0.25 -0.75q-0.0625 -0.234375 -0.09375 -0.3125q-0.65625 0.640625 -1.40625 0.96875q-0.734375 0.3125 -1.59375 0.3125q-1.484375 0 -2.34375 -0.8125q-0.859375 -0.8125 -0.859375 -2.046875q0 -0.828125 0.390625 -1.46875q0.390625 -0.640625 1.09375 -0.96875q0.703125 -0.34375 2.03125 -0.609375q1.796875 -0.328125 2.484375 -0.625l0 -0.25q0 -0.75 -0.359375 -1.0625q-0.359375 -0.3125 -1.375 -0.3125q-0.6875 0 -1.078125 0.28125q-0.375 0.265625 -0.609375 0.9375zm3.421875 2.078125q-0.484375 0.15625 -1.5625 0.390625q-1.0625 0.21875 -1.390625 0.4375q-0.5 0.359375 -0.5 0.90625q0 0.53125 0.40625 0.9375q0.40625 0.390625 1.015625 0.390625q0.703125 0 1.328125 -0.46875q0.46875 -0.34375 0.609375 -0.84375q0.09375 -0.328125 0.09375 -1.25l0 -0.5zm4.844467 -5.03125l2.359375 0l0 1.3125q1.265625 -1.53125 3.015625 -1.53125q0.9375 0 1.609375 0.390625q0.6875 0.375 1.125 1.140625q0.640625 -0.765625 1.375 -1.140625q0.75 -0.390625 1.578125 -0.390625q1.0625 0 1.796875 0.4375q0.75 0.421875 1.109375 1.265625q0.265625 0.625 0.265625 2.0l0 6.1875l-2.5625 0l0 -5.53125q0 -1.4375 -0.265625 -1.859375q-0.34375 -0.546875 -1.09375 -0.546875q-0.53125 0 -1.015625 0.328125q-0.46875 0.328125 -0.671875 0.96875q-0.203125 0.625 -0.203125 2.0l0 4.640625l-2.5625 0l0 -5.296875q0 -1.421875 -0.140625 -1.828125q-0.140625 -0.40625 -0.421875 -0.609375q-0.28125 -0.203125 -0.78125 -0.203125q-0.59375 0 -1.0625 0.328125q-0.46875 0.3125 -0.6875 0.921875q-0.203125 0.59375 -0.203125 1.984375l0 4.703125l-2.5625 0l0 -9.671875z" fill-rule="nonzero"></path><path fill="#cfe2f3" d="m386.0 116.0l150.01575 0l0 93.98425l-150.01575 0z" fill-rule="evenodd"></path><path stroke="#000000" stroke-width="2.0" stroke-linejoin="round" stroke-linecap="butt" d="m386.0 116.0l150.01575 0l0 93.98425l-150.01575 0z" fill-rule="evenodd"></path><path fill="#000000" d="m413.568 155.59962l1.640625 -0.09375q0 0.703125 0.21875 1.21875q0.21875 0.5 0.796875 0.8125q0.59375 0.3125 1.375 0.3125q1.09375 0 1.640625 -0.4375q0.546875 -0.4375 0.546875 -1.015625q0 -0.4375 -0.328125 -0.8125q-0.328125 -0.390625 -1.640625 -0.953125q-1.3125 -0.5625 -1.671875 -0.78125q-0.609375 -0.375 -0.921875 -0.875q-0.3125 -0.515625 -0.3125 -1.171875q0 -1.140625 0.90625 -1.953125q0.921875 -0.828125 2.5625 -0.828125q1.828125 0 2.765625 0.84375q0.953125 0.84375 1.0 2.21875l-1.609375 0.109375q-0.046875 -0.875 -0.625 -1.390625q-0.578125 -0.515625 -1.65625 -0.515625q-0.84375 0 -1.328125 0.40625q-0.46875 0.390625 -0.46875 0.84375q0 0.453125 0.40625 0.796875q0.28125 0.234375 1.421875 0.734375q1.890625 0.8125 2.375 1.28125q0.78125 0.765625 0.78125 1.84375q0 0.71875 -0.4375 1.421875q-0.4375 0.6875 -1.34375 1.109375q-0.90625 0.40625 -2.140625 0.40625q-1.671875 0 -2.84375 -0.828125q-1.1875 -0.828125 -1.109375 -2.703125zm15.6875 1.90625q-1.40625 1.625 -2.953125 1.625q-1.375 0 -2.296875 -1.015625q-0.90625 -1.015625 -0.90625 -2.953125q0 -1.765625 0.71875 -3.21875q0.734375 -1.46875 1.8125 -2.1875q1.09375 -0.734375 2.1875 -0.734375q1.796875 0 2.71875 1.734375l1.09375 -5.203125l1.640625 0l-2.78125 13.359375l-1.53125 0l0.296875 -1.40625zm-4.515625 -2.640625q0 1.0 0.203125 1.59375q0.203125 0.578125 0.671875 0.96875q0.484375 0.375 1.171875 0.375q1.109375 0 2.03125 -1.15625q1.21875 -1.546875 1.21875 -3.828125q0 -1.140625 -0.609375 -1.78125q-0.59375 -0.65625 -1.515625 -0.65625q-0.59375 0 -1.078125 0.265625q-0.484375 0.265625 -0.96875 0.90625q-0.46875 0.625 -0.796875 1.59375q-0.328125 0.96875 -0.328125 1.71875zm8.235107 4.046875l2.796875 -13.359375l1.640625 0l-2.78125 13.359375l-1.65625 0zm2.472931 3.703125l0 -1.1875l10.875 0l0 1.1875l-10.875 0zm14.016357 -3.703125l-1.0 -9.671875l1.578125 0l0.4375 4.34375l0.171875 2.4375q0.015625 0.28125 0.0625 1.109375q0.265625 -0.9375 0.453125 -1.421875q0.203125 -0.5 0.609375 -1.421875l2.3125 -5.046875l1.796875 0l0.3125 4.828125q0.078125 1.109375 0.09375 2.953125q0.453125 -1.21875 1.484375 -3.390625l2.078125 -4.390625l1.65625 0l-4.734375 9.671875l-1.71875 0l-0.359375 -5.671875q-0.03125 -0.53125 -0.046875 -2.0625q-0.375 0.96875 -0.890625 2.109375l-2.5625 5.625l-1.734375 0zm13.972931 -11.484375l0.40625 -1.875l1.625 0l-0.390625 1.875l-1.640625 0zm-2.390625 11.484375l2.015625 -9.671875l1.65625 0l-2.03125 9.671875l-1.640625 0zm4.2073364 0l2.015625 -9.671875l1.5 0l-0.359375 1.6875q0.96875 -1.0 1.8125 -1.453125q0.859375 -0.453125 1.734375 -0.453125q1.1875 0 1.84375 0.640625q0.671875 0.625 0.671875 1.703125q0 0.53125 -0.234375 1.6875l-1.234375 5.859375l-1.640625 0l1.28125 -6.125q0.1875 -0.890625 0.1875 -1.328125q0 -0.484375 -0.328125 -0.78125q-0.328125 -0.296875 -0.953125 -0.296875q-1.28125 0 -2.265625 0.90625q-0.984375 0.90625 -1.453125 3.125l-0.9375 4.5l-1.640625 0zm16.891327 -1.40625q-1.40625 1.625 -2.953125 1.625q-1.375 0 -2.296875 -1.015625q-0.90625 -1.015625 -0.90625 -2.953125q0 -1.765625 0.71875 -3.21875q0.734375 -1.46875 1.8125 -2.1875q1.09375 -0.734375 2.1875 -0.734375q1.796875 0 2.71875 1.734375l1.09375 -5.203125l1.640625 0l-2.78125 13.359375l-1.53125 0l0.296875 -1.40625zm-4.515625 -2.640625q0 1.0 0.203125 1.59375q0.203125 0.578125 0.671875 0.96875q0.484375 0.375 1.171875 0.375q1.109375 0 2.03125 -1.15625q1.21875 -1.546875 1.21875 -3.828125q0 -1.140625 -0.609375 -1.78125q-0.59375 -0.65625 -1.515625 -0.65625q-0.59375 0 -1.078125 0.265625q-0.484375 0.265625 -0.96875 0.90625q-0.46875 0.625 -0.796875 1.59375q-0.328125 0.96875 -0.328125 1.71875zm8.656982 0.375q0 -2.828125 1.671875 -4.6875q1.375 -1.53125 3.609375 -1.53125q1.75 0 2.8125 1.09375q1.078125 1.09375 1.078125 2.953125q0 1.65625 -0.671875 3.09375q-0.671875 1.4375 -1.921875 2.203125q-1.25 0.765625 -2.625 0.765625q-1.125 0 -2.046875 -0.484375q-0.921875 -0.484375 -1.421875 -1.359375q-0.484375 -0.890625 -0.484375 -2.046875zm1.65625 -0.15625q0 1.359375 0.65625 2.0625q0.65625 0.703125 1.65625 0.703125q0.53125 0 1.046875 -0.203125q0.53125 -0.21875 0.96875 -0.65625q0.453125 -0.4375 0.765625 -1.0q0.3125 -0.5625 0.5 -1.203125q0.28125 -0.90625 0.28125 -1.734375q0 -1.3125 -0.65625 -2.03125q-0.65625 -0.734375 -1.65625 -0.734375q-0.78125 0 -1.421875 0.375q-0.625 0.375 -1.140625 1.09375q-0.515625 0.703125 -0.765625 1.640625q-0.234375 0.9375 -0.234375 1.6875zm10.266327 3.828125l-1.0 -9.671875l1.578125 0l0.4375 4.34375l0.171875 2.4375q0.015625 0.28125 0.0625 1.109375q0.265625 -0.9375 0.453125 -1.421875q0.203125 -0.5 0.609375 -1.421875l2.3125 -5.046875l1.796875 0l0.3125 4.828125q0.078125 1.109375 0.09375 2.953125q0.453125 -1.21875 1.484375 -3.390625l2.078125 -4.390625l1.65625 0l-4.734375 9.671875l-1.71875 0l-0.359375 -5.671875q-0.03125 -0.53125 -0.046875 -2.0625q-0.375 0.96875 -0.890625 2.109375l-2.5625 5.625l-1.734375 0z" fill-rule="nonzero"></path><path fill="#000000" d="m447.96786 178.1465l2.5625 -0.390625q0.171875 0.75 0.671875 1.140625q0.5 0.390625 1.40625 0.390625q0.984375 0 1.484375 -0.375q0.34375 -0.25 0.34375 -0.671875q0 -0.296875 -0.1875 -0.484375q-0.1875 -0.1875 -0.859375 -0.34375q-3.09375 -0.6875 -3.921875 -1.25q-1.140625 -0.78125 -1.140625 -2.171875q0 -1.265625 0.984375 -2.109375q1.0 -0.859375 3.078125 -0.859375q1.984375 0 2.953125 0.65625q0.96875 0.640625 1.328125 1.90625l-2.40625 0.4375q-0.15625 -0.5625 -0.59375 -0.859375q-0.421875 -0.296875 -1.234375 -0.296875q-1.0 0 -1.4375 0.28125q-0.296875 0.203125 -0.296875 0.515625q0 0.265625 0.25 0.46875q0.34375 0.25 2.390625 0.71875q2.046875 0.453125 2.859375 1.140625q0.796875 0.671875 0.796875 1.890625q0 1.34375 -1.109375 2.296875q-1.109375 0.953125 -3.28125 0.953125q-1.984375 0 -3.140625 -0.796875q-1.140625 -0.8125 -1.5 -2.1875zm20.156982 2.765625l-2.390625 0l0 -1.421875q-0.59375 0.828125 -1.40625 1.234375q-0.796875 0.40625 -1.609375 0.40625q-1.671875 0 -2.859375 -1.34375q-1.1875 -1.34375 -1.1875 -3.75q0 -2.453125 1.15625 -3.734375q1.15625 -1.28125 2.921875 -1.28125q1.625 0 2.8125 1.34375l0 -4.8125l2.5625 0l0 13.359375zm-6.84375 -5.046875q0 1.546875 0.4375 2.234375q0.609375 1.015625 1.71875 1.015625q0.890625 0 1.5 -0.75q0.625 -0.765625 0.625 -2.25q0 -1.671875 -0.609375 -2.40625q-0.59375 -0.734375 -1.53125 -0.734375q-0.90625 0 -1.53125 0.734375q-0.609375 0.71875 -0.609375 2.15625zm9.364716 5.046875l0 -13.359375l2.5625 0l0 13.359375l-2.5625 0z" fill-rule="nonzero"></path><path fill="#000000" fill-opacity="0.0" d="m240.01575 162.99213l145.98425 0" fill-rule="evenodd"></path><path stroke="#000000" stroke-width="2.0" stroke-linejoin="round" stroke-linecap="butt" d="m240.01575 162.99213l133.98425 0" fill-rule="evenodd"></path><path fill="#000000" stroke="#000000" stroke-width="2.0" stroke-linecap="butt" d="m374.0 166.2956l9.076202 -3.3034668l-9.076202 -3.3034668z" fill-rule="evenodd"></path><path fill="#000000" fill-opacity="0.0" d="m245.0 122.0l125.98425 0l0 41.007874l-125.98425 0z" fill-rule="evenodd"></path><path fill="#000000" d="m254.78125 145.6075l1.640625 -0.09375q0 0.703125 0.21875 1.21875q0.21875 0.5 0.796875 0.8125q0.59375 0.3125 1.375 0.3125q1.09375 0 1.640625 -0.4375q0.546875 -0.4375 0.546875 -1.015625q0 -0.4375 -0.328125 -0.8125q-0.328125 -0.390625 -1.640625 -0.953125q-1.3125 -0.5625 -1.671875 -0.78125q-0.609375 -0.375 -0.921875 -0.875q-0.3125 -0.515625 -0.3125 -1.171875q0 -1.140625 0.90625 -1.953125q0.921875 -0.828125 2.5625 -0.828125q1.828125 0 2.765625 0.84375q0.953125 0.84375 1.0 2.21875l-1.609375 0.109375q-0.046875 -0.875 -0.625 -1.390625q-0.578125 -0.515625 -1.65625 -0.515625q-0.84375 0 -1.328125 0.40625q-0.46875 0.390625 -0.46875 0.84375q0 0.453125 0.40625 0.796875q0.28125 0.234375 1.421875 0.734375q1.890625 0.8125 2.375 1.28125q0.78125 0.765625 0.78125 1.84375q0 0.71875 -0.4375 1.421875q-0.4375 0.6875 -1.34375 1.109375q-0.90625 0.40625 -2.140625 0.40625q-1.671875 0 -2.84375 -0.828125q-1.1875 -0.828125 -1.109375 -2.703125zm11.5 -8.171875l0.40625 -1.875l1.625 0l-0.390625 1.875l-1.640625 0zm-2.390625 11.484375l2.015625 -9.671875l1.65625 0l-2.03125 9.671875l-1.640625 0zm4.2073364 0l2.015625 -9.671875l1.5 0l-0.359375 1.6875q0.96875 -1.0 1.8125 -1.453125q0.859375 -0.453125 1.734375 -0.453125q1.1875 0 1.84375 0.640625q0.671875 0.625 0.671875 1.703125q0 0.53125 -0.234375 1.6875l-1.234375 5.859375l-1.640625 0l1.28125 -6.125q0.1875 -0.890625 0.1875 -1.328125q0 -0.484375 -0.328125 -0.78125q-0.328125 -0.296875 -0.953125 -0.296875q-1.28125 0 -2.265625 0.90625q-0.984375 0.90625 -1.453125 3.125l-0.9375 4.5l-1.640625 0zm10.281952 0.875l1.671875 0.15625q-0.03125 0.5625 0.125 0.84375q0.15625 0.28125 0.5 0.4375q0.4375 0.203125 1.15625 0.203125q1.484375 0 2.140625 -0.78125q0.4375 -0.515625 0.796875 -2.25l0.171875 -0.78125q-1.296875 1.296875 -2.734375 1.296875q-1.46875 0 -2.46875 -1.078125q-0.984375 -1.078125 -0.984375 -3.0625q0 -1.625 0.78125 -2.984375q0.78125 -1.375 1.859375 -2.0625q1.078125 -0.703125 2.203125 -0.703125q1.90625 0 2.9375 1.796875l0.328125 -1.578125l1.515625 0l-1.953125 9.328125q-0.3125 1.546875 -0.84375 2.40625q-0.515625 0.859375 -1.4375 1.328125q-0.921875 0.484375 -2.140625 0.484375q-1.15625 0 -2.0 -0.3125q-0.84375 -0.296875 -1.265625 -0.875q-0.40625 -0.578125 -0.40625 -1.328125q0 -0.21875 0.046875 -0.484375zm2.0625 -5.15625q0 1.0 0.1875 1.5q0.265625 0.6875 0.765625 1.0625q0.515625 0.375 1.140625 0.375q0.8125 0 1.609375 -0.5625q0.796875 -0.578125 1.296875 -1.765625q0.5 -1.203125 0.5 -2.28125q0 -1.203125 -0.671875 -1.90625q-0.65625 -0.703125 -1.625 -0.703125q-0.609375 0 -1.171875 0.328125q-0.5625 0.3125 -1.046875 0.984375q-0.484375 0.65625 -0.734375 1.578125q-0.25 0.921875 -0.25 1.390625zm8.266327 4.28125l2.796875 -13.359375l1.640625 0l-2.78125 13.359375l-1.65625 0zm11.379211 -3.28125l1.609375 0.15625q-0.34375 1.1875 -1.59375 2.265625q-1.234375 1.078125 -2.96875 1.078125q-1.0625 0 -1.96875 -0.5q-0.890625 -0.5 -1.359375 -1.4375q-0.46875 -0.953125 -0.46875 -2.15625q0 -1.59375 0.734375 -3.078125q0.734375 -1.484375 1.890625 -2.203125q1.171875 -0.734375 2.53125 -0.734375q1.734375 0 2.765625 1.078125q1.03125 1.0625 1.03125 2.921875q0 0.71875 -0.125 1.46875l-7.125 0q-0.046875 0.28125 -0.046875 0.5q0 1.359375 0.625 2.078125q0.625 0.71875 1.53125 0.71875q0.84375 0 1.65625 -0.546875q0.828125 -0.5625 1.28125 -1.609375zm-4.78125 -2.40625l5.421875 0q0.015625 -0.25 0.015625 -0.359375q0 -1.234375 -0.625 -1.890625q-0.625 -0.671875 -1.59375 -0.671875q-1.0625 0 -1.9375 0.734375q-0.859375 0.71875 -1.28125 2.1875z" fill-rule="nonzero"></path><path fill="#000000" fill-opacity="0.0" d="m245.0 157.0l132.50394 0l0 41.007874l-132.50394 0z" fill-rule="evenodd"></path><path fill="#000000" d="m254.125 174.24812l2.71875 0l2.328125 6.859375l2.25 -6.859375l2.65625 0l-3.421875 9.3125l-0.609375 1.6875q-0.328125 0.84375 -0.640625 1.28125q-0.3125 0.453125 -0.703125 0.71875q-0.390625 0.28125 -0.96875 0.4375q-0.578125 0.15625 -1.3125 0.15625q-0.734375 0 -1.453125 -0.15625l-0.21875 -2.0q0.59375 0.125 1.078125 0.125q0.890625 0 1.3125 -0.53125q0.4375 -0.515625 0.671875 -1.328125l-3.6875 -9.703125zm17.953857 9.671875l0 -1.453125q-0.53125 0.78125 -1.390625 1.234375q-0.859375 0.4375 -1.8125 0.4375q-0.96875 0 -1.75 -0.421875q-0.765625 -0.4375 -1.125 -1.203125q-0.34375 -0.78125 -0.34375 -2.140625l0 -6.125l2.5625 0l0 4.4375q0 2.046875 0.140625 2.515625q0.140625 0.453125 0.515625 0.71875q0.375 0.265625 0.953125 0.265625q0.65625 0 1.171875 -0.359375q0.515625 -0.359375 0.703125 -0.890625q0.203125 -0.53125 0.203125 -2.609375l0 -4.078125l2.546875 0l0 9.671875l-2.375 0zm7.6928406 0l-3.90625 -9.671875l2.6875 0l1.828125 4.9375l0.53125 1.640625q0.203125 -0.625 0.265625 -0.828125q0.125 -0.40625 0.265625 -0.8125l1.84375 -4.9375l2.625 0l-3.84375 9.671875l-2.296875 0zm6.203827 3.6875l0 -1.65625l10.640625 0l0 1.65625l-10.640625 0zm11.891357 -14.671875l0 -2.375l2.5625 0l0 2.375l-2.5625 0zm0 10.984375l0 -9.671875l2.5625 0l0 9.671875l-2.5625 0zm4.9801636 -9.671875l2.359375 0l0 1.3125q1.265625 -1.53125 3.015625 -1.53125q0.9375 0 1.609375 0.390625q0.6875 0.375 1.125 1.140625q0.640625 -0.765625 1.375 -1.140625q0.75 -0.390625 1.578125 -0.390625q1.0625 0 1.796875 0.4375q0.75 0.421875 1.109375 1.265625q0.265625 0.625 0.265625 2.0l0 6.1875l-2.5625 0l0 -5.53125q0 -1.4375 -0.265625 -1.859375q-0.34375 -0.546875 -1.09375 -0.546875q-0.53125 0 -1.015625 0.328125q-0.46875 0.328125 -0.671875 0.96875q-0.203125 0.625 -0.203125 2.0l0 4.640625l-2.5625 0l0 -5.296875q0 -1.421875 -0.140625 -1.828125q-0.140625 -0.40625 -0.421875 -0.609375q-0.28125 -0.203125 -0.78125 -0.203125q-0.59375 0 -1.0625 0.328125q-0.46875 0.3125 -0.6875 0.921875q-0.203125 0.59375 -0.203125 1.984375l0 4.703125l-2.5625 0l0 -9.671875zm18.697784 2.953125l-2.328125 -0.421875q0.40625 -1.40625 1.359375 -2.078125q0.953125 -0.671875 2.84375 -0.671875q1.703125 0 2.546875 0.40625q0.84375 0.40625 1.171875 1.03125q0.34375 0.625 0.34375 2.28125l-0.015625 3.0q0 1.265625 0.109375 1.875q0.125 0.609375 0.46875 1.296875l-2.53125 0q-0.109375 -0.25 -0.25 -0.75q-0.0625 -0.234375 -0.09375 -0.3125q-0.65625 0.640625 -1.40625 0.96875q-0.734375 0.3125 -1.59375 0.3125q-1.484375 0 -2.34375 -0.8125q-0.859375 -0.8125 -0.859375 -2.046875q0 -0.828125 0.390625 -1.46875q0.390625 -0.640625 1.09375 -0.96875q0.703125 -0.34375 2.03125 -0.609375q1.796875 -0.328125 2.484375 -0.625l0 -0.25q0 -0.75 -0.359375 -1.0625q-0.359375 -0.3125 -1.375 -0.3125q-0.6875 0 -1.078125 0.28125q-0.375 0.265625 -0.609375 0.9375zm3.421875 2.078125q-0.484375 0.15625 -1.5625 0.390625q-1.0625 0.21875 -1.390625 0.4375q-0.5 0.359375 -0.5 0.90625q0 0.53125 0.40625 0.9375q0.40625 0.390625 1.015625 0.390625q0.703125 0 1.328125 -0.46875q0.46875 -0.34375 0.609375 -0.84375q0.09375 -0.328125 0.09375 -1.25l0 -0.5zm4.813202 5.28125l2.921875 0.359375q0.0625 0.5 0.328125 0.6875q0.375 0.28125 1.15625 0.28125q1.0 0 1.5 -0.296875q0.328125 -0.203125 0.515625 -0.65625q0.109375 -0.3125 0.109375 -1.171875l0 -1.40625q-1.140625 1.5625 -2.890625 1.5625q-1.953125 0 -3.09375 -1.65625q-0.890625 -1.296875 -0.890625 -3.234375q0 -2.4375 1.171875 -3.71875q1.171875 -1.28125 2.90625 -1.28125q1.796875 0 2.96875 1.578125l0 -1.359375l2.390625 0l0 8.671875q0 1.71875 -0.28125 2.5625q-0.28125 0.84375 -0.796875 1.328125q-0.5 0.484375 -1.359375 0.75q-0.84375 0.28125 -2.15625 0.28125q-2.453125 0 -3.484375 -0.84375q-1.03125 -0.84375 -1.03125 -2.125q0 -0.140625 0.015625 -0.3125zm2.28125 -5.671875q0 1.53125 0.59375 2.25q0.59375 0.71875 1.46875 0.71875q0.9375 0 1.578125 -0.734375q0.65625 -0.734375 0.65625 -2.171875q0 -1.515625 -0.625 -2.234375q-0.609375 -0.734375 -1.5625 -0.734375q-0.921875 0 -1.515625 0.71875q-0.59375 0.71875 -0.59375 2.1875zm14.942871 1.953125l2.546875 0.421875q-0.484375 1.40625 -1.546875 2.140625q-1.0625 0.734375 -2.65625 0.734375q-2.515625 0 -3.734375 -1.65625q-0.953125 -1.3125 -0.953125 -3.328125q0 -2.40625 1.25 -3.765625q1.265625 -1.359375 3.1875 -1.359375q2.15625 0 3.40625 1.421875q1.25 1.421875 1.1875 4.375l-6.40625 0q0.03125 1.140625 0.609375 1.78125q0.59375 0.625 1.484375 0.625q0.59375 0 1.0 -0.328125q0.421875 -0.328125 0.625 -1.0625zm0.15625 -2.59375q-0.03125 -1.109375 -0.578125 -1.6875q-0.546875 -0.578125 -1.328125 -0.578125q-0.84375 0 -1.390625 0.609375q-0.546875 0.609375 -0.53125 1.65625l3.828125 0z" fill-rule="nonzero"></path></g></svg>

