<svg xmlns="http://www.w3.org/2000/svg" style="overflow: hidden; display: block; width: 1212px; height: 1429px;" width="1212px" height="1429px" viewBox="0 0 1212 1429" xmlns:xlink="http://www.w3.org/1999/xlink"><defs><path fill="rgb(0,0,0)" stroke="rgb(0,0,0)" d="M 5,-5 L 0,0 L 5,5 Z" fill-opacity="1" stroke-opacity="1" stroke-width="1" stroke-linecap="butt" stroke-linejoin="miter" stroke-miterlimit="10" id="ygc268_0"/><path fill="rgb(0,0,0)" stroke="rgb(0,0,0)" d="M 5,-5 L 0,0 L 5,5 Z" fill-opacity="1" stroke-opacity="1" stroke-width="1" stroke-linecap="butt" stroke-linejoin="miter" stroke-miterlimit="10" id="ygc268_1"/></defs><g style="pointer-events:visiblePainted" transform="matrix(1.4000000000000001 0 0 1.4000000000000001 459.725 343.70000000000005)" image-rendering="auto" shape-rendering="auto"><g><path fill="none" stroke="rgb(0,0,0)" d="M 119,-132.5 L 119,-91.625" stroke-opacity="1" stroke-width="0.75" stroke-linecap="butt" stroke-linejoin="miter" stroke-miterlimit="10"/><use xlink:href="#ygc268_0" style="pointer-events: none;" transform="matrix(0 -1 1 0 119 -87.33210678118655)"/></g><g><path fill="none" stroke="rgb(0,0,0)" d="M 79.90197577360851,-20.289782055318867 L 21.66944296983103,22.843518791372947" stroke-opacity="1" stroke-width="0.75" stroke-linecap="butt" stroke-linejoin="miter" stroke-miterlimit="10"/><use xlink:href="#ygc268_0" style="pointer-events: none;" transform="matrix(0.8035697905732588 -0.5952105439909889 0.5952105439909889 0.8035697905732588 18.21980366503574 25.39869409943813)"/></g><g><path fill="none" stroke="rgb(0,0,0)" d="M 150.71904130311862,-17.548225458614183 L 197.84966307837485,29.55674001736319" stroke-opacity="1" stroke-width="0.75" stroke-linecap="butt" stroke-linejoin="miter" stroke-miterlimit="10"/><use xlink:href="#ygc268_1" style="pointer-events: none;" transform="matrix(-0.7072992697510986 -0.7069142402085014 0.7069142402085014 -0.7072992697510986 200.88602331716103 32.59144736543693)"/></g><g><path fill="none" stroke="rgb(0,0,0)" d="M -65.81076490018953,28.499000123692582 L -124.5204185041564,-7.723519077098581" stroke-opacity="1" stroke-width="0.75" stroke-linecap="butt" stroke-linejoin="miter" stroke-miterlimit="10"/><use xlink:href="#ygc268_1" style="pointer-events: none;" transform="matrix(0.8510527659423409 0.5250801744323347 -0.5250801744323347 0.8510527659423409 -128.17389715192272 -9.977632197252536)"/></g><g><path fill="none" stroke="rgb(0,0,0)" d="M -86.75524840153537,58.78886809573627 L -143.06563679932188,61.76903239512909" stroke-opacity="1" stroke-width="0.75" stroke-linecap="butt" stroke-linejoin="miter" stroke-miterlimit="10"/><use xlink:href="#ygc268_1" style="pointer-events: none;" transform="matrix(0.9986024665237938 -0.05284991818910638 0.05284991818910638 0.9986024665237938 -147.35253055615226 61.995911450537946)"/></g><g><path fill="none" stroke="rgb(0,0,0)" d="M -61.209451713016705,84.39337804741643 L -122.7105995511904,130.20160890919468" stroke-opacity="1" stroke-width="0.75" stroke-linecap="butt" stroke-linejoin="miter" stroke-miterlimit="10"/><use xlink:href="#ygc268_1" style="pointer-events: none;" transform="matrix(0.8019837396827735 -0.5973458640389449 0.5973458640389449 0.8019837396827735 -126.15343010887324 132.76595091821372)"/></g><g><path fill="none" stroke="rgb(0,0,0)" d="M -12.844171277121688,91.32397888848779 L 2.6379323233112535,150.4964167330744" stroke-opacity="1" stroke-width="0.75" stroke-linecap="butt" stroke-linejoin="miter" stroke-miterlimit="10"/><use xlink:href="#ygc268_1" style="pointer-events: none;" transform="matrix(-0.2531231589684047 -0.96743406307296 0.96743406307296 -0.2531231589684047 3.724563015971358 154.64950786208945)"/></g><g><path fill="none" stroke="rgb(0,0,0)" d="M 231.52074260356176,101.81003124981837 L 228.48220356195176,149.95188419032667" stroke-opacity="1" stroke-width="0.75" stroke-linecap="butt" stroke-linejoin="miter" stroke-miterlimit="10"/><use xlink:href="#ygc268_1" style="pointer-events: none;" transform="matrix(0.06299102758558828 -0.9980140933091635 0.9980140933091635 0.06299102758558828 228.21178980678351 154.23625212377385)"/></g><g><path fill="none" stroke="rgb(0,0,0)" d="M 287.60302672556116,85.79151566209785 L 342.4081286995937,106.46576171926637" stroke-opacity="1" stroke-width="0.75" stroke-linecap="butt" stroke-linejoin="miter" stroke-miterlimit="10"/><use xlink:href="#ygc268_1" style="pointer-events: none;" transform="matrix(-0.9356407624741928 -0.35295376977263065 0.35295376977263065 -0.9356407624741928 346.4247345840646 107.98095456407795)"/></g><g><path fill="none" stroke="rgb(0,0,0)" d="M 119,-12.874999999999943 L 119,276.625" stroke-opacity="1" stroke-width="0.75" stroke-linecap="butt" stroke-linejoin="miter" stroke-miterlimit="10"/><use xlink:href="#ygc268_1" style="pointer-events: none;" transform="matrix(0 -1 1 0 119 280.91789321881345)"/></g><g><path fill="none" stroke="rgb(0,0,0)" d="M 119,355.375 L 119,403.375" stroke-opacity="1" stroke-width="0.75" stroke-linecap="butt" stroke-linejoin="miter" stroke-miterlimit="10"/><use xlink:href="#ygc268_1" style="pointer-events: none;" transform="matrix(0 -1 1 0 119 407.66789321881345)"/></g><g><path fill="none" stroke="rgb(0,0,0)" d="M 79.73,472.375 L 8.87511079895042,529.2104726211627" stroke-opacity="1" stroke-width="0.75" stroke-linecap="butt" stroke-linejoin="miter" stroke-miterlimit="10"/><use xlink:href="#ygc268_1" style="pointer-events: none;" transform="matrix(0.7800542124059249 -0.6257119350849656 0.6257119350849656 0.7800542124059249 5.5264213602061565 531.8965871442197)"/></g><g><path fill="none" stroke="rgb(0,0,0)" d="M 119,472.375 L 119,520.375" stroke-opacity="1" stroke-width="0.75" stroke-linecap="butt" stroke-linejoin="miter" stroke-miterlimit="10"/><use xlink:href="#ygc268_1" style="pointer-events: none;" transform="matrix(0 -1 1 0 119 524.6678932188134)"/></g><g><path fill="none" stroke="rgb(0,0,0)" d="M 158.26999999999998,472.375 L 229.12488920104957,529.2104726211627" stroke-opacity="1" stroke-width="0.75" stroke-linecap="butt" stroke-linejoin="miter" stroke-miterlimit="10"/><use xlink:href="#ygc268_1" style="pointer-events: none;" transform="matrix(-0.7800542124059249 -0.6257119350849656 0.6257119350849656 -0.7800542124059249 232.47357863979383 531.8965871442197)"/></g><g><path fill="none" stroke="rgb(0,0,0)" d="M 119,599.125 L 119,647.125" stroke-opacity="1" stroke-width="0.75" stroke-linecap="butt" stroke-linejoin="miter" stroke-miterlimit="10"/><use xlink:href="#ygc268_1" style="pointer-events: none;" transform="matrix(0 -1 1 0 119 651.4178932188134)"/></g><g><path fill="none" stroke="rgb(0,0,0)" d="M 237.25409597673044,593.7819407328082 L 165.6817208869691,659.7203387746874" stroke-opacity="1" stroke-width="0.75" stroke-linecap="butt" stroke-linejoin="miter" stroke-miterlimit="10"/><use xlink:href="#ygc268_1" style="pointer-events: none;" transform="matrix(0.7354607453755243 -0.6775673339319701 0.6775673339319701 0.7354607453755243 162.524466440443 662.6290629878134)"/></g><g><path fill="none" stroke="rgb(0,0,0)" d="M 3.2411157072331775,592.9310911782266 L 78.21407676111966,655.4753795440356" stroke-opacity="1" stroke-width="0.75" stroke-linecap="butt" stroke-linejoin="miter" stroke-miterlimit="10"/><use xlink:href="#ygc268_1" style="pointer-events: none;" transform="matrix(-0.7678845886078618 -0.6405882129562913 0.6405882129562913 -0.7678845886078618 81.5105233043857 658.2253563394876)"/></g><g><path fill="none" stroke="rgb(0,0,0)" d="M 183.8125,689.5 L 487,689.5 L 487,-164 L 197,-164" stroke-opacity="1" stroke-width="0.75" stroke-linecap="butt" stroke-linejoin="miter" stroke-miterlimit="10"/><use xlink:href="#ygc268_1" style="pointer-events: none;" transform="translate(192.70710678118655 -164)"/></g><g><path d="M 47,-195.5 L 191,-195.5 L 191,-132.5 L 47,-132.5 Z" stroke="rgb(0,0,0)" stroke-opacity="1" stroke-width="1" stroke-linecap="butt" stroke-linejoin="miter" stroke-miterlimit="10" fill="rgb(210,222,238)" fill-opacity="1"/></g><g><path d="M 119,-12.875 C 83.2105375,-12.875 54.1875,-29.163725 54.1875,-49.25 C 54.1875,-69.336275 83.2105375,-85.625 119,-85.625 C 154.7894625,-85.625 183.8125,-69.336275 183.8125,-49.25 C 183.8125,-29.163725 154.7894625,-12.875 119,-12.875 Z" stroke="rgb(219,203,54)" stroke-opacity="1" stroke-width="1" stroke-linecap="butt" stroke-linejoin="miter" stroke-miterlimit="10" fill="rgb(219,203,54)" fill-opacity="1"/></g><g><path d="M -22.25,91.75 C -58.0394625,91.75 -87.0625,75.461275 -87.0625,55.375 C -87.0625,35.288725 -58.0394625,19 -22.25,19 C 13.539462499999999,19 42.5625,35.288725 42.5625,55.375 C 42.5625,75.461275 13.539462499999999,91.75 -22.25,91.75 Z" stroke="rgb(219,203,54)" stroke-opacity="1" stroke-width="1" stroke-linecap="butt" stroke-linejoin="miter" stroke-miterlimit="10" fill="rgb(219,203,54)" fill-opacity="1"/></g><g><path d="M -173.1875,-1.375 C -208.9769625,-1.375 -238,-17.663725 -238,-37.75 C -238,-57.836275 -208.9769625,-74.125 -173.1875,-74.125 C -137.3980375,-74.125 -108.375,-57.836275 -108.375,-37.75 C -108.375,-17.663725 -137.3980375,-1.375 -173.1875,-1.375 Z" stroke="rgb(219,203,54)" stroke-opacity="1" stroke-width="1" stroke-linecap="butt" stroke-linejoin="miter" stroke-miterlimit="10" fill="rgb(219,203,54)" fill-opacity="1"/></g><g><path d="M 13.5625,228.625 C -22.2269625,228.625 -51.25,212.336275 -51.25,192.25 C -51.25,172.163725 -22.2269625,155.875 13.5625,155.875 C 49.3519625,155.875 78.375,172.163725 78.375,192.25 C 78.375,212.336275 49.3519625,228.625 13.5625,228.625 Z" stroke="rgb(219,203,54)" stroke-opacity="1" stroke-width="1" stroke-linecap="butt" stroke-linejoin="miter" stroke-miterlimit="10" fill="rgb(219,203,54)" fill-opacity="1"/></g><g><path d="M 233.8125,101.875 C 198.0230375,101.875 169,85.586275 169,65.5 C 169,45.413725 198.0230375,29.125 233.8125,29.125 C 269.6019625,29.125 298.625,45.413725 298.625,65.5 C 298.625,85.586275 269.6019625,101.875 233.8125,101.875 Z" stroke="rgb(219,203,54)" stroke-opacity="1" stroke-width="1" stroke-linecap="butt" stroke-linejoin="miter" stroke-miterlimit="10" fill="rgb(219,203,54)" fill-opacity="1"/></g><g><path d="M -213.5625,101.875 C -249.3519625,101.875 -278.375,85.586275 -278.375,65.5 C -278.375,45.413725 -249.3519625,29.125 -213.5625,29.125 C -177.7730375,29.125 -148.75,45.413725 -148.75,65.5 C -148.75,85.586275 -177.7730375,101.875 -213.5625,101.875 Z" stroke="rgb(219,203,54)" stroke-opacity="1" stroke-width="1" stroke-linecap="butt" stroke-linejoin="miter" stroke-miterlimit="10" fill="rgb(219,203,54)" fill-opacity="1"/></g><g><path d="M -128.78125,206.5 C -164.5707125,206.5 -193.59375,190.211275 -193.59375,170.125 C -193.59375,150.038725 -164.5707125,133.75 -128.78125,133.75 C -92.9917875,133.75 -63.96875,150.038725 -63.96875,170.125 C -63.96875,190.211275 -92.9917875,206.5 -128.78125,206.5 Z" stroke="rgb(219,203,54)" stroke-opacity="1" stroke-width="1" stroke-linecap="butt" stroke-linejoin="miter" stroke-miterlimit="10" fill="rgb(219,203,54)" fill-opacity="1"/></g><g><path d="M 225.8125,228.625 C 190.0230375,228.625 161,212.336275 161,192.25 C 161,172.163725 190.0230375,155.875 225.8125,155.875 C 261.6019625,155.875 290.625,172.163725 290.625,192.25 C 290.625,212.336275 261.6019625,228.625 225.8125,228.625 Z" stroke="rgb(219,203,54)" stroke-opacity="1" stroke-width="1" stroke-linecap="butt" stroke-linejoin="miter" stroke-miterlimit="10" fill="rgb(219,203,54)" fill-opacity="1"/></g><g><path d="M 401.8125,165.25 C 366.0230375,165.25 337,148.961275 337,128.875 C 337,108.788725 366.0230375,92.5 401.8125,92.5 C 437.6019625,92.5 466.625,108.788725 466.625,128.875 C 466.625,148.961275 437.6019625,165.25 401.8125,165.25 Z" stroke="rgb(219,203,54)" stroke-opacity="1" stroke-width="1" stroke-linecap="butt" stroke-linejoin="miter" stroke-miterlimit="10" fill="rgb(219,203,54)" fill-opacity="1"/></g><g><path d="M 119,355.375 C 83.2105375,355.375 54.1875,339.086275 54.1875,319 C 54.1875,298.913725 83.2105375,282.625 119,282.625 C 154.7894625,282.625 183.8125,298.913725 183.8125,319 C 183.8125,339.086275 154.7894625,355.375 119,355.375 Z" stroke="rgb(219,203,54)" stroke-opacity="1" stroke-width="1" stroke-linecap="butt" stroke-linejoin="miter" stroke-miterlimit="10" fill="rgb(219,203,54)" fill-opacity="1"/></g><g><path d="M -32.9375,599.125 C -68.7269625,599.125 -97.75,582.836275 -97.75,562.75 C -97.75,542.663725 -68.7269625,526.375 -32.9375,526.375 C 2.851962499999999,526.375 31.875,542.663725 31.875,562.75 C 31.875,582.836275 2.851962499999999,599.125 -32.9375,599.125 Z" stroke="rgb(219,203,54)" stroke-opacity="1" stroke-width="1" stroke-linecap="butt" stroke-linejoin="miter" stroke-miterlimit="10" fill="rgb(219,203,54)" fill-opacity="1"/></g><g><path d="M 119,599.125 C 83.2105375,599.125 54.1875,582.836275 54.1875,562.75 C 54.1875,542.663725 83.2105375,526.375 119,526.375 C 154.7894625,526.375 183.8125,542.663725 183.8125,562.75 C 183.8125,582.836275 154.7894625,599.125 119,599.125 Z" stroke="rgb(219,203,54)" stroke-opacity="1" stroke-width="1" stroke-linecap="butt" stroke-linejoin="miter" stroke-miterlimit="10" fill="rgb(219,203,54)" fill-opacity="1"/></g><g><path d="M 270.9375,599.125 C 235.1480375,599.125 206.125,582.836275 206.125,562.75 C 206.125,542.663725 235.1480375,526.375 270.9375,526.375 C 306.7269625,526.375 335.75,542.663725 335.75,562.75 C 335.75,582.836275 306.7269625,599.125 270.9375,599.125 Z" stroke="rgb(219,203,54)" stroke-opacity="1" stroke-width="1" stroke-linecap="butt" stroke-linejoin="miter" stroke-miterlimit="10" fill="rgb(219,203,54)" fill-opacity="1"/></g><g><path d="M 47,409.375 L 191,409.375 L 191,472.375 L 47,472.375 Z" stroke="rgb(0,0,0)" stroke-opacity="1" stroke-width="1" stroke-linecap="butt" stroke-linejoin="miter" stroke-miterlimit="10" fill="rgb(210,222,238)" fill-opacity="1"/></g><g><path d="M 119,725.875 C 83.2105375,725.875 54.1875,709.586275 54.1875,689.5 C 54.1875,669.413725 83.2105375,653.125 119,653.125 C 154.7894625,653.125 183.8125,669.413725 183.8125,689.5 C 183.8125,709.586275 154.7894625,725.875 119,725.875 Z" stroke="rgb(219,203,54)" stroke-opacity="1" stroke-width="1" stroke-linecap="butt" stroke-linejoin="miter" stroke-miterlimit="10" fill="rgb(219,203,54)" fill-opacity="1"/></g><g transform="translate(47 -195.5)"><text font-family="Arial" font-size="13px" font-style="normal" font-weight="normal" text-anchor="middle" fill="rgb(0,0,0)" fill-opacity="1" transform="translate(72 4.5)"><tspan dy="0.9230769230769231em" x="0">Webová stránka pro</tspan><tspan dy="1.5em" x="0">přehrání a úpravu</tspan><tspan dy="1.5em" x="0">záznamů</tspan></text></g><g transform="translate(54.1875 -85.625)"><text font-family="Arial" font-size="13px" font-style="normal" font-weight="normal" text-anchor="middle" fill="rgb(0,0,0)" fill-opacity="1" transform="translate(64.8125 19.125)"><tspan dy="0.9230769230769231em" x="0">Výběr existujícího</tspan><tspan dy="1.5em" x="0">záznamu</tspan></text></g><g transform="translate(-87.0625 19)"><text font-family="Arial" font-size="13px" font-style="normal" font-weight="normal" text-anchor="middle" fill="rgb(0,0,0)" fill-opacity="1" transform="translate(64.8125 28.875)"><tspan dy="0.9230769230769231em" x="0">Přehrání záznamu</tspan></text></g><g transform="translate(-238 -74.125)"><text font-family="Arial" font-size="13px" font-style="normal" font-weight="normal" text-anchor="middle" fill="rgb(0,0,0)" fill-opacity="1" transform="translate(64.8125 28.875)"><tspan dy="0.9230769230769231em" x="0">Změna hlasitosti</tspan></text></g><g transform="translate(-51.25 155.875)"><text font-family="Arial" font-size="13px" font-style="normal" font-weight="normal" text-anchor="middle" fill="rgb(0,0,0)" fill-opacity="1" transform="translate(64.8125 19.125)"><tspan dy="0.9230769230769231em" x="0">Změna rychlosti</tspan><tspan dy="1.5em" x="0">přehrávání</tspan></text></g><g transform="translate(169 29.125)"><text font-family="Arial" font-size="13px" font-style="normal" font-weight="normal" text-anchor="middle" fill="rgb(0,0,0)" fill-opacity="1" transform="translate(64.8125 28.875)"><tspan dy="0.9230769230769231em" x="0">Editace záznamu</tspan></text></g><g transform="translate(-278.375 29.125)"><text font-family="Arial" font-size="13px" font-style="normal" font-weight="normal" text-anchor="middle" fill="rgb(0,0,0)" fill-opacity="1" transform="translate(64.8125 19.125)"><tspan dy="0.9230769230769231em" x="0">Změna rozlišení</tspan><tspan dy="1.5em" x="0">přehrávání</tspan></text></g><g transform="translate(-193.59375 133.75)"><text font-family="Arial" font-size="13px" font-style="normal" font-weight="normal" text-anchor="middle" fill="rgb(0,0,0)" fill-opacity="1" transform="translate(64.8125 19.125)"><tspan dy="0.9230769230769231em" x="0">Přehrání v režimu celé</tspan><tspan dy="1.5em" x="0">obrazovky</tspan></text></g><g transform="translate(161 155.875)"><text font-family="Arial" font-size="13px" font-style="normal" font-weight="normal" text-anchor="middle" fill="rgb(0,0,0)" fill-opacity="1" transform="translate(64.8125 28.875)"><tspan dy="0.9230769230769231em" x="0">Časový ořez záznamu</tspan></text></g><g transform="translate(337 92.5)"><text font-family="Arial" font-size="13px" font-style="normal" font-weight="normal" text-anchor="middle" fill="rgb(0,0,0)" fill-opacity="1" transform="translate(64.8125 28.875)"><tspan dy="0.9230769230769231em" x="0">Transformace obrazu</tspan></text></g><g transform="translate(54.1875 282.625)"><text font-family="Arial" font-size="13px" font-style="normal" font-weight="normal" text-anchor="middle" fill="rgb(0,0,0)" fill-opacity="1" transform="translate(64.8125 19.125)"><tspan dy="0.9230769230769231em" x="0">Export záznamu s</tspan><tspan dy="1.5em" x="0">nastavením exportu</tspan></text></g><g transform="translate(-97.75 526.375)"><text font-family="Arial" font-size="13px" font-style="normal" font-weight="normal" text-anchor="middle" fill="rgb(0,0,0)" fill-opacity="1" transform="translate(64.8125 19.125)"><tspan dy="0.9230769230769231em" x="0">Volba rozlišení pro</tspan><tspan dy="1.5em" x="0">export</tspan></text></g><g transform="translate(54.1875 526.375)"><text font-family="Arial" font-size="13px" font-style="normal" font-weight="normal" text-anchor="middle" fill="rgb(0,0,0)" fill-opacity="1" transform="translate(64.8125 19.125)"><tspan dy="0.9230769230769231em" x="0">Volba formátu pro</tspan><tspan dy="1.5em" x="0">export</tspan></text></g><g transform="translate(206.125 526.375)"><text font-family="Arial" font-size="13px" font-style="normal" font-weight="normal" text-anchor="middle" fill="rgb(0,0,0)" fill-opacity="1" transform="translate(64.8125 28.875)"><tspan dy="0.9230769230769231em" x="0">Volba úložiště</tspan></text></g><g transform="translate(47 409.375)"><text font-family="Arial" font-size="13px" font-style="normal" font-weight="normal" text-anchor="middle" fill="rgb(0,0,0)" fill-opacity="1" transform="translate(72 14.25)"><tspan dy="0.9230769230769231em" x="0">Modální okno pro export</tspan><tspan dy="1.5em" x="0">záznamu</tspan></text></g><g transform="translate(54.1875 653.125)"><text font-family="Arial" font-size="13px" font-style="normal" font-weight="normal" text-anchor="middle" fill="rgb(0,0,0)" fill-opacity="1" transform="translate(64.8125 28.875)"><tspan dy="0.9230769230769231em" x="0">Export záznamu</tspan></text></g></g></svg>