<svg xmlns="http://www.w3.org/2000/svg" style="overflow: hidden; display: block; width: 1210px; height: 1408px;" width="1210px" height="1408px" viewBox="0 0 1210 1408" xmlns:xlink="http://www.w3.org/1999/xlink"><defs><path fill="rgb(0,0,0)" stroke="rgb(0,0,0)" d="M 5,-5 L 0,0 L 5,5 Z" fill-opacity="1" stroke-opacity="1" stroke-width="1" stroke-linecap="butt" stroke-linejoin="miter" stroke-miterlimit="10" id="ygc185_0"/></defs><g style="pointer-events:visiblePainted" transform="matrix(2 0 0 2 325 491)" image-rendering="auto" shape-rendering="auto"><g><path fill="none" stroke="rgb(0,0,0)" d="M 83.37531276063388,-132.5 L -11.735415606510527,-48.4013544895235" stroke-opacity="1" stroke-width="0.75" stroke-linecap="butt" stroke-linejoin="miter" stroke-miterlimit="10"/><use xlink:href="#ygc185_0" style="pointer-events: none;" transform="matrix(0.7491441738716326 -0.6624069796991795 0.6624069796991795 0.7491441738716326 -14.951411550437664 -45.55771205827819)"/></g><g><path fill="none" stroke="rgb(0,0,0)" d="M 119,-132.49999999999997 L 119,-42" stroke-opacity="1" stroke-width="0.75" stroke-linecap="butt" stroke-linejoin="miter" stroke-miterlimit="10"/><use xlink:href="#ygc185_0" style="pointer-events: none;" transform="matrix(0 -1 1 0 119 -37.707106781186546)"/></g><g><path fill="none" stroke="rgb(0,0,0)" d="M 155.21580483736446,-132.5 L 251.6693366456624,-48.60606845255766" stroke-opacity="1" stroke-width="0.75" stroke-linecap="butt" stroke-linejoin="miter" stroke-miterlimit="10"/><use xlink:href="#ygc185_0" style="pointer-events: none;" transform="matrix(-0.7545230306177224 -0.6562735681615157 0.6562735681615157 -0.7545230306177224 254.9084234472398 -45.78875610211058)"/></g><g><path fill="none" stroke="rgb(0,0,0)" d="M -14.646974106393657,15.51455901676455 L 77.97492146433618,92.08472489787673" stroke-opacity="1" stroke-width="0.75" stroke-linecap="butt" stroke-linejoin="miter" stroke-miterlimit="10"/><use xlink:href="#ygc185_0" style="pointer-events: none;" transform="matrix(-0.7707311536124143 -0.6371604890851889 0.6371604890851889 -0.7707311536124143 81.28358800720717 94.8199868407664)"/></g><g><path fill="none" stroke="rgb(0,0,0)" d="M 119,36.750000000000014 L 119,83.625" stroke-opacity="1" stroke-width="0.75" stroke-linecap="butt" stroke-linejoin="miter" stroke-miterlimit="10"/><use xlink:href="#ygc185_0" style="pointer-events: none;" transform="matrix(0 -1 1 0 119 87.91789321881345)"/></g><g><path fill="none" stroke="rgb(0,0,0)" d="M 254.51342668275723,15.800107862625438 L 160.454155844231,92.28936619413643" stroke-opacity="1" stroke-width="0.75" stroke-linecap="butt" stroke-linejoin="miter" stroke-miterlimit="10"/><use xlink:href="#ygc185_0" style="pointer-events: none;" transform="matrix(0.7758470878313685 -0.630920990539691 0.630920990539691 0.7758470878313685 157.12352714204354 94.99784263603134)"/></g><g><path fill="none" stroke="rgb(0,0,0)" d="M 119,162.375 L 119,209.25" stroke-opacity="1" stroke-width="0.75" stroke-linecap="butt" stroke-linejoin="miter" stroke-miterlimit="10"/><use xlink:href="#ygc185_0" style="pointer-events: none;" transform="matrix(0 -1 1 0 119 213.54289321881345)"/></g><g><path fill="none" stroke="rgb(0,0,0)" d="M 99.72388059701493,278.25 L 66.0042668830754,333.35278338619383" stroke-opacity="1" stroke-width="0.75" stroke-linecap="butt" stroke-linejoin="miter" stroke-miterlimit="10"/><use xlink:href="#ygc185_0" style="pointer-events: none;" transform="matrix(0.5219648702449757 -0.8529669830832526 0.8529669830832526 0.5219648702449757 63.7635274311419 337.0144795637437)"/></g><g><path fill="none" stroke="rgb(0,0,0)" d="M 142.53880597014927,278.25 L 184.7227392908631,334.70120237991665" stroke-opacity="1" stroke-width="0.75" stroke-linecap="butt" stroke-linejoin="miter" stroke-miterlimit="10"/><use xlink:href="#ygc185_0" style="pointer-events: none;" transform="matrix(-0.5985962421230776 -0.8010508965828137 0.8010508965828137 -0.5985962421230776 187.2924490394805 338.14002834178143)"/></g><g><path fill="none" stroke="rgb(0,0,0)" d="M 270.5,372.375 L 391.75,372.375 L 391.75,-164 L 197,-164" stroke-opacity="1" stroke-width="0.75" stroke-linecap="butt" stroke-linejoin="miter" stroke-miterlimit="10"/><use xlink:href="#ygc185_0" style="pointer-events: none;" transform="translate(192.70710678118655 -164)"/></g><g><path d="M 47,-195.5 L 191,-195.5 L 191,-132.5 L 47,-132.5 Z" stroke="rgb(0,0,0)" stroke-opacity="1" stroke-width="1" stroke-linecap="butt" stroke-linejoin="miter" stroke-miterlimit="10" fill="rgb(210,222,238)" fill-opacity="1"/></g><g><path d="M 119,36.75 C 83.2105375,36.75 54.1875,20.461275 54.1875,0.375 C 54.1875,-19.711275 83.2105375,-36 119,-36 C 154.7894625,-36 183.8125,-19.711275 183.8125,0.375 C 183.8125,20.461275 154.7894625,36.75 119,36.75 Z" stroke="rgb(219,203,54)" stroke-opacity="1" stroke-width="1" stroke-linecap="butt" stroke-linejoin="miter" stroke-miterlimit="10" fill="rgb(219,203,54)" fill-opacity="1"/></g><g><path d="M -50.5,22.25 C -84.7364,22.25 -112.5,5.9612750000000005 -112.5,-14.125 C -112.5,-34.211275 -84.7364,-50.5 -50.5,-50.5 C -16.263599999999997,-50.5 11.5,-34.211275 11.5,-14.125 C 11.5,5.9612750000000005 -16.263599999999997,22.25 -50.5,22.25 Z" stroke="rgb(219,203,54)" stroke-opacity="1" stroke-width="1" stroke-linecap="butt" stroke-linejoin="miter" stroke-miterlimit="10" fill="rgb(219,203,54)" fill-opacity="1"/></g><g><path d="M 291.3125,22.25 C 255.5230375,22.25 226.5,5.9612750000000005 226.5,-14.125 C 226.5,-34.211275 255.5230375,-50.5 291.3125,-50.5 C 327.1019625,-50.5 356.125,-34.211275 356.125,-14.125 C 356.125,5.9612750000000005 327.1019625,22.25 291.3125,22.25 Z" stroke="rgb(219,203,54)" stroke-opacity="1" stroke-width="1" stroke-linecap="butt" stroke-linejoin="miter" stroke-miterlimit="10" fill="rgb(219,203,54)" fill-opacity="1"/></g><g><path d="M 119,162.375 C 83.2105375,162.375 54.1875,146.086275 54.1875,126 C 54.1875,105.913725 83.2105375,89.625 119,89.625 C 154.7894625,89.625 183.8125,105.913725 183.8125,126 C 183.8125,146.086275 154.7894625,162.375 119,162.375 Z" stroke="rgb(219,203,54)" stroke-opacity="1" stroke-width="1" stroke-linecap="butt" stroke-linejoin="miter" stroke-miterlimit="10" fill="rgb(219,203,54)" fill-opacity="1"/></g><g><path d="M 47,215.25 L 191,215.25 L 191,278.25 L 47,278.25 Z" stroke="rgb(0,0,0)" stroke-opacity="1" stroke-width="1" stroke-linecap="butt" stroke-linejoin="miter" stroke-miterlimit="10" fill="rgb(210,222,238)" fill-opacity="1"/></g><g><path d="M 42.125,408.75 C 10.304475,408.75 -15.5,392.461275 -15.5,372.375 C -15.5,352.288725 10.304475,336 42.125,336 C 73.945525,336 99.75,352.288725 99.75,372.375 C 99.75,392.461275 73.945525,408.75 42.125,408.75 Z" stroke="rgb(219,203,54)" stroke-opacity="1" stroke-width="1" stroke-linecap="butt" stroke-linejoin="miter" stroke-miterlimit="10" fill="rgb(219,203,54)" fill-opacity="1"/></g><g><path d="M 212.875,408.75 C 181.054475,408.75 155.25,392.461275 155.25,372.375 C 155.25,352.288725 181.054475,336 212.875,336 C 244.695525,336 270.5,352.288725 270.5,372.375 C 270.5,392.461275 244.695525,408.75 212.875,408.75 Z" stroke="rgb(219,203,54)" stroke-opacity="1" stroke-width="1" stroke-linecap="butt" stroke-linejoin="miter" stroke-miterlimit="10" fill="rgb(219,203,54)" fill-opacity="1"/></g><g transform="translate(47 -195.5)"><text font-family="Arial" font-size="13px" font-style="normal" font-weight="normal" text-anchor="middle" fill="rgb(0,0,0)" fill-opacity="1" transform="translate(72 14.25)"><tspan dy="0.9230769230769231em" x="0">Webová stránka s</tspan><tspan dy="1.5em" x="0">nastavením streamování</tspan></text></g><g transform="translate(54.1875 -36)"><text font-family="Arial" font-size="13px" font-style="normal" font-weight="normal" text-anchor="middle" fill="rgb(0,0,0)" fill-opacity="1" transform="translate(64.8125 28.875)"><tspan dy="0.9230769230769231em" x="0">Výběr cíle streamu</tspan></text></g><g transform="translate(-112.5 -50.5)"><text font-family="Arial" font-size="13px" font-style="normal" font-weight="normal" text-anchor="middle" fill="rgb(0,0,0)" fill-opacity="1" transform="translate(62 19.125)"><tspan dy="0.9230769230769231em" x="0">Výběr nahrávacích</tspan><tspan dy="1.5em" x="0">zařízení</tspan></text></g><g transform="translate(226.5 -50.5)"><text font-family="Arial" font-size="13px" font-style="normal" font-weight="normal" text-anchor="middle" fill="rgb(0,0,0)" fill-opacity="1" transform="translate(64.8125 19.125)"><tspan dy="0.9230769230769231em" x="0">Nastavení pozice</tspan><tspan dy="1.5em" x="0">obrazu streamů</tspan></text></g><g transform="translate(54.1875 89.625)"><text font-family="Arial" font-size="13px" font-style="normal" font-weight="normal" text-anchor="middle" fill="rgb(0,0,0)" fill-opacity="1" transform="translate(64.8125 19.125)"><tspan dy="0.9230769230769231em" x="0">Spuštění nahrávání a</tspan><tspan dy="1.5em" x="0">streamování</tspan></text></g><g transform="translate(47 215.25)"><text font-family="Arial" font-size="13px" font-style="normal" font-weight="normal" text-anchor="middle" fill="rgb(0,0,0)" fill-opacity="1" transform="translate(72 4.5)"><tspan dy="0.9230769230769231em" x="0">Webová stránka s</tspan><tspan dy="1.5em" x="0">náhledem</tspan><tspan dy="1.5em" x="0">streamovaného obsahu</tspan></text></g><g transform="translate(-15.5 336)"><text font-family="Arial" font-size="13px" font-style="normal" font-weight="normal" text-anchor="middle" fill="rgb(0,0,0)" fill-opacity="1" transform="translate(57.625 19.125)"><tspan dy="0.9230769230769231em" x="0">Přidání komentářů</tspan><tspan dy="1.5em" x="0">ke streamu</tspan></text></g><g transform="translate(155.25 336)"><text font-family="Arial" font-size="13px" font-style="normal" font-weight="normal" text-anchor="middle" fill="rgb(0,0,0)" fill-opacity="1" transform="translate(57.625 19.125)"><tspan dy="0.9230769230769231em" x="0">Zastavení</tspan><tspan dy="1.5em" x="0">streamování</tspan></text></g></g></svg>