<svg xmlns="http://www.w3.org/2000/svg" style="overflow: hidden; display: block; width: 1221px; height: 1408px;" width="1221px" height="1408px" viewBox="0 0 1221 1408" xmlns:xlink="http://www.w3.org/1999/xlink"><defs><path fill="rgb(0,0,0)" stroke="rgb(0,0,0)" d="M 5,-5 L 0,0 L 5,5 Z" fill-opacity="1" stroke-opacity="1" stroke-width="1" stroke-linecap="butt" stroke-linejoin="miter" stroke-miterlimit="10" id="ygc283_0"/></defs><g style="pointer-events:visiblePainted" transform="matrix(2 0 0 2 336.25 491)" image-rendering="auto" shape-rendering="auto"><g><path fill="none" stroke="rgb(0,0,0)" d="M 82.78419516263554,-132.5 L -13.669336645662433,-48.60606845255766" stroke-opacity="1" stroke-width="0.75" stroke-linecap="butt" stroke-linejoin="miter" stroke-miterlimit="10"/><use xlink:href="#ygc283_0" style="pointer-events: none;" transform="matrix(0.7545230306177225 -0.6562735681615156 0.6562735681615156 0.7545230306177225 -16.90842344723983 -45.78875610211058)"/></g><g><path fill="none" stroke="rgb(0,0,0)" d="M 119,-132.49999999999997 L 119,-42" stroke-opacity="1" stroke-width="0.75" stroke-linecap="butt" stroke-linejoin="miter" stroke-miterlimit="10"/><use xlink:href="#ygc283_0" style="pointer-events: none;" transform="matrix(0 -1 1 0 119 -37.707106781186546)"/></g><g><path fill="none" stroke="rgb(0,0,0)" d="M 155.21580483736446,-132.5 L 251.6693366456624,-48.60606845255766" stroke-opacity="1" stroke-width="0.75" stroke-linecap="butt" stroke-linejoin="miter" stroke-miterlimit="10"/><use xlink:href="#ygc283_0" style="pointer-events: none;" transform="matrix(-0.7545230306177224 -0.6562735681615157 0.6562735681615157 -0.7545230306177224 254.9084234472398 -45.78875610211058)"/></g><g><path fill="none" stroke="rgb(0,0,0)" d="M -16.513426682757228,15.800107862625438 L 77.54584415576899,92.28936619413642" stroke-opacity="1" stroke-width="0.75" stroke-linecap="butt" stroke-linejoin="miter" stroke-miterlimit="10"/><use xlink:href="#ygc283_0" style="pointer-events: none;" transform="matrix(-0.7758470878313685 -0.630920990539691 0.630920990539691 -0.7758470878313685 80.87647285795644 94.99784263603132)"/></g><g><path fill="none" stroke="rgb(0,0,0)" d="M 119,36.750000000000014 L 119,83.625" stroke-opacity="1" stroke-width="0.75" stroke-linecap="butt" stroke-linejoin="miter" stroke-miterlimit="10"/><use xlink:href="#ygc283_0" style="pointer-events: none;" transform="matrix(0 -1 1 0 119 87.91789321881345)"/></g><g><path fill="none" stroke="rgb(0,0,0)" d="M 254.51342668275723,15.800107862625438 L 160.454155844231,92.28936619413643" stroke-opacity="1" stroke-width="0.75" stroke-linecap="butt" stroke-linejoin="miter" stroke-miterlimit="10"/><use xlink:href="#ygc283_0" style="pointer-events: none;" transform="matrix(0.7758470878313685 -0.630920990539691 0.630920990539691 0.7758470878313685 157.12352714204354 94.99784263603134)"/></g><g><path fill="none" stroke="rgb(0,0,0)" d="M 119,162.375 L 119,209.25" stroke-opacity="1" stroke-width="0.75" stroke-linecap="butt" stroke-linejoin="miter" stroke-miterlimit="10"/><use xlink:href="#ygc283_0" style="pointer-events: none;" transform="matrix(0 -1 1 0 119 213.54289321881345)"/></g><g><path fill="none" stroke="rgb(0,0,0)" d="M 97.92164179104478,278.25 L 61.03988622198786,333.36697300654606" stroke-opacity="1" stroke-width="0.75" stroke-linecap="butt" stroke-linejoin="miter" stroke-miterlimit="10"/><use xlink:href="#ygc283_0" style="pointer-events: none;" transform="matrix(0.556130652597894 -0.8310948786035446 0.8310948786035446 0.556130652597894 58.65247671467606 336.9347745750938)"/></g><g><path fill="none" stroke="rgb(0,0,0)" d="M 144.34104477611942,278.25 L 189.64906661001987,334.5698045059616" stroke-opacity="1" stroke-width="0.75" stroke-linecap="butt" stroke-linejoin="miter" stroke-miterlimit="10"/><use xlink:href="#ygc283_0" style="pointer-events: none;" transform="matrix(-0.626820042980868 -0.7791640608482032 0.7791640608482032 -0.626820042980868 192.33993812194882 337.91467261912)"/></g><g><path fill="none" stroke="rgb(0,0,0)" d="M 284.875,372.375 L 391.75,372.375 L 391.75,-164 L 197,-164" stroke-opacity="1" stroke-width="0.75" stroke-linecap="butt" stroke-linejoin="miter" stroke-miterlimit="10"/><use xlink:href="#ygc283_0" style="pointer-events: none;" transform="translate(192.70710678118655 -164)"/></g><g><path d="M 47,-195.5 L 191,-195.5 L 191,-132.5 L 47,-132.5 Z" stroke="rgb(0,0,0)" stroke-opacity="1" stroke-width="1" stroke-linecap="butt" stroke-linejoin="miter" stroke-miterlimit="10" fill="rgb(210,222,238)" fill-opacity="1"/></g><g><path d="M 119,36.75 C 83.2105375,36.75 54.1875,20.461275 54.1875,0.375 C 54.1875,-19.711275 83.2105375,-36 119,-36 C 154.7894625,-36 183.8125,-19.711275 183.8125,0.375 C 183.8125,20.461275 154.7894625,36.75 119,36.75 Z" stroke="rgb(219,203,54)" stroke-opacity="1" stroke-width="1" stroke-linecap="butt" stroke-linejoin="miter" stroke-miterlimit="10" fill="rgb(219,203,54)" fill-opacity="1"/></g><g><path d="M -53.3125,22.25 C -89.1019625,22.25 -118.125,5.9612750000000005 -118.125,-14.125 C -118.125,-34.211275 -89.1019625,-50.5 -53.3125,-50.5 C -17.5230375,-50.5 11.5,-34.211275 11.5,-14.125 C 11.5,5.9612750000000005 -17.5230375,22.25 -53.3125,22.25 Z" stroke="rgb(219,203,54)" stroke-opacity="1" stroke-width="1" stroke-linecap="butt" stroke-linejoin="miter" stroke-miterlimit="10" fill="rgb(219,203,54)" fill-opacity="1"/></g><g><path d="M 291.3125,22.25 C 255.5230375,22.25 226.5,5.9612750000000005 226.5,-14.125 C 226.5,-34.211275 255.5230375,-50.5 291.3125,-50.5 C 327.1019625,-50.5 356.125,-34.211275 356.125,-14.125 C 356.125,5.9612750000000005 327.1019625,22.25 291.3125,22.25 Z" stroke="rgb(219,203,54)" stroke-opacity="1" stroke-width="1" stroke-linecap="butt" stroke-linejoin="miter" stroke-miterlimit="10" fill="rgb(219,203,54)" fill-opacity="1"/></g><g><path d="M 119,162.375 C 83.2105375,162.375 54.1875,146.086275 54.1875,126 C 54.1875,105.913725 83.2105375,89.625 119,89.625 C 154.7894625,89.625 183.8125,105.913725 183.8125,126 C 183.8125,146.086275 154.7894625,162.375 119,162.375 Z" stroke="rgb(219,203,54)" stroke-opacity="1" stroke-width="1" stroke-linecap="butt" stroke-linejoin="miter" stroke-miterlimit="10" fill="rgb(219,203,54)" fill-opacity="1"/></g><g><path d="M 47,215.25 L 191,215.25 L 191,278.25 L 47,278.25 Z" stroke="rgb(0,0,0)" stroke-opacity="1" stroke-width="1" stroke-linecap="butt" stroke-linejoin="miter" stroke-miterlimit="10" fill="rgb(210,222,238)" fill-opacity="1"/></g><g><path d="M 34.9375,408.75 C -0.8519624999999991,408.75 -29.875,392.461275 -29.875,372.375 C -29.875,352.288725 -0.8519624999999991,336 34.9375,336 C 70.7269625,336 99.75,352.288725 99.75,372.375 C 99.75,392.461275 70.7269625,408.75 34.9375,408.75 Z" stroke="rgb(219,203,54)" stroke-opacity="1" stroke-width="1" stroke-linecap="butt" stroke-linejoin="miter" stroke-miterlimit="10" fill="rgb(219,203,54)" fill-opacity="1"/></g><g><path d="M 220.0625,408.75 C 184.2730375,408.75 155.25,392.461275 155.25,372.375 C 155.25,352.288725 184.2730375,336 220.0625,336 C 255.8519625,336 284.875,352.288725 284.875,372.375 C 284.875,392.461275 255.8519625,408.75 220.0625,408.75 Z" stroke="rgb(219,203,54)" stroke-opacity="1" stroke-width="1" stroke-linecap="butt" stroke-linejoin="miter" stroke-miterlimit="10" fill="rgb(219,203,54)" fill-opacity="1"/></g><g transform="translate(47 -195.5)"><text font-family="Arial" font-size="13px" font-style="normal" font-weight="normal" text-anchor="middle" fill="rgb(0,0,0)" fill-opacity="1" transform="translate(72 14.25)"><tspan dy="0.9230769230769231em" x="0">Webová stránka s</tspan><tspan dy="1.5em" x="0">nastavením streamování</tspan></text></g><g transform="translate(54.1875 -36)"><text font-family="Arial" font-size="13px" font-style="normal" font-weight="normal" text-anchor="middle" fill="rgb(0,0,0)" fill-opacity="1" transform="translate(64.8125 28.875)"><tspan dy="0.9230769230769231em" x="0">Výběr cíle streamu</tspan></text></g><g transform="translate(-118.125 -50.5)"><text font-family="Arial" font-size="13px" font-style="normal" font-weight="normal" text-anchor="middle" fill="rgb(0,0,0)" fill-opacity="1" transform="translate(64.8125 19.125)"><tspan dy="0.9230769230769231em" x="0">Výběr nahrávacích</tspan><tspan dy="1.5em" x="0">zařízení</tspan></text></g><g transform="translate(226.5 -50.5)"><text font-family="Arial" font-size="13px" font-style="normal" font-weight="normal" text-anchor="middle" fill="rgb(0,0,0)" fill-opacity="1" transform="translate(64.8125 28.875)"><tspan dy="0.9230769230769231em" x="0">Aranžování streamů</tspan></text></g><g transform="translate(54.1875 89.625)"><text font-family="Arial" font-size="13px" font-style="normal" font-weight="normal" text-anchor="middle" fill="rgb(0,0,0)" fill-opacity="1" transform="translate(64.8125 19.125)"><tspan dy="0.9230769230769231em" x="0">Spuštění nahrávání a</tspan><tspan dy="1.5em" x="0">streamování</tspan></text></g><g transform="translate(47 215.25)"><text font-family="Arial" font-size="13px" font-style="normal" font-weight="normal" text-anchor="middle" fill="rgb(0,0,0)" fill-opacity="1" transform="translate(72 4.5)"><tspan dy="0.9230769230769231em" x="0">Webová stránka s</tspan><tspan dy="1.5em" x="0">náhledem</tspan><tspan dy="1.5em" x="0">streamovaného obsahu</tspan></text></g><g transform="translate(-29.875 336)"><text font-family="Arial" font-size="13px" font-style="normal" font-weight="normal" text-anchor="middle" fill="rgb(0,0,0)" fill-opacity="1" transform="translate(64.8125 19.125)"><tspan dy="0.9230769230769231em" x="0">Přidání komentářů ke</tspan><tspan dy="1.5em" x="0">streamu</tspan></text></g><g transform="translate(155.25 336)"><text font-family="Arial" font-size="13px" font-style="normal" font-weight="normal" text-anchor="middle" fill="rgb(0,0,0)" fill-opacity="1" transform="translate(64.8125 19.125)"><tspan dy="0.9230769230769231em" x="0">Zastavení nahrávání a</tspan><tspan dy="1.5em" x="0">streamování</tspan></text></g></g></svg>