<svg xmlns="http://www.w3.org/2000/svg" xmlns:xlink="http://www.w3.org/1999/xlink" viewBox="-2001 -718 1920 1080">
  <defs>
    <style>
      .cls-1 {
        clip-path: url(#clip-ulab);
      }

      .cls-2 {
        fill: #f1f9ff;
        stroke: #bce0fd;
      }

      .cls-2, .cls-8 {
        stroke-width: 2px;
      }

      .cls-3, .cls-4, .cls-5, .cls-6, .cls-7 {
        fill: #2699fb;
      }

      .cls-3, .cls-5 {
        font-size: 23px;
      }

      .cls-3 {
        font-family: ArialMT, Arial;
      }

      .cls-4 {
        font-size: 21px;
      }

      .cls-4, .cls-5, .cls-7, .cls-9 {
        font-family: Arial-BoldMT, Arial;
        font-weight: 700;
      }

      .cls-7, .cls-9 {
        font-size: 30px;
      }

      .cls-11, .cls-8 {
        fill: none;
      }

      .cls-8 {
        stroke: #2699fb;
      }

      .cls-12, .cls-9 {
        fill: #fff;
      }

      .cls-9 {
        opacity: 0.87;
      }

      .cls-10 {
        stroke: none;
      }
    </style>
    <clipPath id="clip-ulab">
      <rect x="-2001" y="-718" width="1920" height="1080"/>
    </clipPath>
  </defs>
  <g id="ulab" class="cls-1">
    <rect class="cls-12" x="-2001" y="-718" width="1920" height="1080"/>
    <g id="Group_15" data-name="Group 15" transform="translate(-2001 -821)">
      <g id="Group_13" data-name="Group 13" transform="translate(0 -156)">
        <g id="Name" transform="translate(440 254.644)">
          <g id="Rectangle_598" data-name="Rectangle 598" class="cls-2" transform="translate(220 236)">
            <rect class="cls-10" width="600" height="83.333" rx="10"/>
            <rect class="cls-11" x="1" y="1" width="598" height="81.333" rx="9"/>
          </g>
          <text id="John_Doe" data-name="John Doe" class="cls-3" transform="translate(253.333 285.333)"><tspan x="0" y="0">John Doe</tspan></text>
          <text id="Name-2" data-name="Name" class="cls-4" transform="translate(220 215)"><tspan x="0" y="0">Name</tspan></text>
        </g>
        <g id="Password" transform="translate(440 190)">
          <g id="Rectangle_600" data-name="Rectangle 600" class="cls-2" transform="translate(220 466)">
            <rect class="cls-10" width="600" height="83.333" rx="10"/>
            <rect class="cls-11" x="1" y="1" width="598" height="81.333" rx="9"/>
          </g>
          <text id="_" data-name="●●●●●●●" class="cls-3" transform="translate(253.333 515.333)"><tspan x="0" y="0">●●●●●●●</tspan></text>
          <text id="Password-2" data-name="Password" class="cls-5" transform="translate(220 447)"><tspan x="0" y="0">Password</tspan></text>
          <g id="Symbol_7_1" data-name="Symbol 7 – 1" transform="translate(-289 -4003.667)">
            <path id="Union_3" data-name="Union 3" class="cls-6" d="M7.778,9.192,1.414,15.557,0,14.142,6.364,7.778,0,1.414,1.414,0,7.778,6.364,14.142,0l1.415,1.414L9.192,7.778l6.364,6.364-1.415,1.415Z" transform="translate(1049 4498)"/>
          </g>
        </g>
      </g>
      <text id="Login_to_control_ULAB" data-name="Login to control ULAB" class="cls-7" transform="translate(935 249)"><tspan x="-159.968" y="0">Login to control ULAB</tspan></text>
    </g>
    <g id="Group_16" data-name="Group 16" transform="translate(-2001 -684)">
      <text id="_or_continue_to" data-name=" or continue to" class="cls-7" transform="translate(960 842)"><tspan x="-104.158" y="0" xml:space="preserve"> or continue to</tspan></text>
      <g id="Button_Primary" data-name="Button Primary" transform="translate(692 660)">
        <g id="Group_14" data-name="Group 14">
          <g id="Rectangle_1091" data-name="Rectangle 1091" class="cls-8" transform="translate(-32 227)">
            <rect class="cls-10" width="600" height="83" rx="4"/>
            <rect class="cls-11" x="1" y="1" width="598" height="81" rx="3"/>
          </g>
          <text id="FIT_usability_blog" data-name="FIT usability blog" class="cls-7" transform="translate(268 279)"><tspan x="-123.333" y="0">FIT usability blog</tspan></text>
        </g>
      </g>
    </g>
    <g id="Button_Primary-2" data-name="Button Primary" transform="translate(-1309 -247)">
      <g id="Group_14-2" data-name="Group 14">
        <g id="Rectangle_1091-2" data-name="Rectangle 1091" class="cls-8" transform="translate(-32 227)">
          <rect class="cls-10" width="600" height="83" rx="4"/>
          <rect class="cls-11" x="1" y="1" width="598" height="81" rx="3"/>
        </g>
        <text id="Contact_us" data-name="Contact us" class="cls-7" transform="translate(268 279)"><tspan x="-77.505" y="0">Contact us</tspan></text>
      </g>
    </g>
    <g id="CTA" transform="translate(-1461 -605)">
      <rect id="Rectangle_119" data-name="Rectangle 119" class="cls-6" width="600" height="70" rx="4" transform="translate(120 403)"/>
      <text id="LOGIN" class="cls-9" transform="translate(420 449)"><tspan x="-47.498" y="0">LOGIN</tspan></text>
    </g>
  </g>
</svg>
