<svg xmlns="http://www.w3.org/2000/svg" xmlns:xlink="http://www.w3.org/1999/xlink" viewBox="108 508 1920 1080">
  <defs>
    <style>
      .cls-1, .cls-11 {
        fill: none;
      }

      .cls-2 {
        clip-path: url(#clip-ulab_config_1);
      }

      .cls-3 {
        clip-path: url(#clip-path);
      }

      .cls-10, .cls-13, .cls-17, .cls-4, .cls-6 {
        fill: #fff;
      }

      .cls-11, .cls-4 {
        stroke: #2699fb;
      }

      .cls-12, .cls-5, .cls-8, .cls-9 {
        fill: #2699fb;
      }

      .cls-6 {
        font-size: 15px;
      }

      .cls-6, .cls-8 {
        font-family: ArialMT, Arial;
      }

      .cls-14, .cls-7 {
        fill: #f1f9ff;
      }

      .cls-13, .cls-7 {
        stroke: #bce0fd;
      }

      .cls-11, .cls-13, .cls-7 {
        stroke-width: 2px;
      }

      .cls-8, .cls-9 {
        font-size: 14px;
      }

      .cls-12, .cls-9 {
        font-family: Arial-BoldMT, Arial;
        font-weight: 700;
      }

      .cls-12 {
        font-size: 30px;
      }

      .cls-15 {
        fill: #bce0fd;
      }

      .cls-16 {
        clip-path: url(#clip-path-2);
      }

      .cls-17 {
        stroke: #707070;
      }

      .cls-18 {
        stroke: none;
      }
    </style>
    <clipPath id="clip-path">
      <rect class="cls-1" width="2476" height="240"/>
    </clipPath>
    <clipPath id="clip-path-2">
      <rect class="cls-1" width="1060" height="720"/>
    </clipPath>
    <clipPath id="clip-ulab_config_1">
      <rect x="108" y="508" width="1920" height="1080"/>
    </clipPath>
  </defs>
  <g id="ulab_config_1" data-name="ulab/config – 1" class="cls-2">
    <rect class="cls-10" x="108" y="508" width="1920" height="1080"/>
    <g id="Repeat_Grid_3" data-name="Repeat Grid 3" class="cls-3" transform="translate(268 588)">
      <g transform="translate(-160 -680)">
        <g id="src_cam" data-name="src cam" class="cls-4" transform="translate(170 680)">
          <rect class="cls-18" width="350" height="233.333"/>
          <rect class="cls-1" x="0.5" y="0.5" width="349" height="232.333"/>
        </g>
      </g>
      <g transform="translate(216 -680)">
        <g id="src_cam-2" data-name="src cam" class="cls-4" transform="translate(170 680)">
          <rect class="cls-18" width="350" height="233.333"/>
          <rect class="cls-1" x="0.5" y="0.5" width="349" height="232.333"/>
        </g>
      </g>
      <g transform="translate(592 -680)">
        <g id="src_cam-3" data-name="src cam" class="cls-4" transform="translate(170 680)">
          <rect class="cls-18" width="350" height="233.333"/>
          <rect class="cls-1" x="0.5" y="0.5" width="349" height="232.333"/>
        </g>
      </g>
      <g transform="translate(968 -680)">
        <g id="src_cam-4" data-name="src cam" class="cls-4" transform="translate(170 680)">
          <rect class="cls-18" width="350" height="233.333"/>
          <rect class="cls-1" x="0.5" y="0.5" width="349" height="232.333"/>
        </g>
      </g>
      <g transform="translate(1344 -680)">
        <g id="src_cam-5" data-name="src cam" class="cls-4" transform="translate(170 680)">
          <rect class="cls-18" width="350" height="233.333"/>
          <rect class="cls-1" x="0.5" y="0.5" width="349" height="232.333"/>
        </g>
      </g>
      <g transform="translate(1720 -680)">
        <g id="src_cam-6" data-name="src cam" class="cls-4" transform="translate(170 680)">
          <rect class="cls-18" width="350" height="233.333"/>
          <rect class="cls-1" x="0.5" y="0.5" width="349" height="232.333"/>
        </g>
      </g>
      <g transform="translate(2096 -680)">
        <g id="src_cam-7" data-name="src cam" class="cls-4" transform="translate(170 680)">
          <rect class="cls-18" width="350" height="233.333"/>
          <rect class="cls-1" x="0.5" y="0.5" width="349" height="232.333"/>
        </g>
      </g>
    </g>
    <g id="Side_bar_2" data-name="Side bar 2" transform="translate(108 508)">
      <rect id="Base" class="cls-5" width="160" height="1080"/>
      <text id="CONTROL" class="cls-6" transform="translate(40 102)"><tspan x="0" y="0">CONTROL</tspan></text>
      <text id="EDITOR" class="cls-6" transform="translate(41 168.144)"><tspan x="0" y="0">EDITOR</tspan></text>
      <text id="FORMS" class="cls-6" transform="translate(40 234.287)"><tspan x="0" y="0">FORMS</tspan></text>
      <text id="BLOG" class="cls-6" transform="translate(40 300.431)"><tspan x="0" y="0">BLOG</tspan></text>
      <text id="CONTACT" class="cls-6" transform="translate(40 366.575)"><tspan x="0" y="0">CONTACT</tspan></text>
    </g>
    <g id="Group_11" data-name="Group 11" transform="translate(328 540)">
      <g id="Name" transform="translate(960 170)">
        <g id="Rectangle_598" data-name="Rectangle 598" class="cls-7" transform="translate(220 220)">
          <rect class="cls-18" width="360" height="50" rx="10"/>
          <rect class="cls-1" x="1" y="1" width="358" height="48" rx="9"/>
        </g>
        <text id="Demo_ULAB" data-name="Demo ULAB" class="cls-8" transform="translate(240 250)"><tspan x="0" y="0">Demo ULAB</tspan></text>
        <text id="Project_Name" data-name="Project Name" class="cls-9" transform="translate(220 209)"><tspan x="0" y="0">Project Name</tspan></text>
      </g>
      <g id="Dropdown_2" data-name="Dropdown 2" transform="translate(323 180)">
        <g id="Rectangle_613" data-name="Rectangle 613" class="cls-7" transform="translate(857 330)">
          <rect class="cls-18" width="360" height="50" rx="10"/>
          <rect class="cls-1" x="1" y="1" width="358" height="48" rx="9"/>
        </g>
        <text id="Sapp" class="cls-8" transform="translate(877 360)"><tspan x="0" y="0">Sapp</tspan></text>
        <text id="Stream_target" data-name="Stream target" class="cls-9" transform="translate(857 319)"><tspan x="0" y="0">Stream target</tspan></text>
        <g id="Symbol_6_2" data-name="Symbol 6 – 2" transform="translate(504.35 -350)">
          <path id="Path_36" data-name="Path 36" class="cls-10" d="M6.7,8.1,2,3.4,3.4,2,6.7,5.3,10,2l1.4,1.4Z" transform="translate(681 700)"/>
        </g>
      </g>
      <g id="Name-2" data-name="Name" transform="translate(960 410)">
        <g id="Rectangle_598-2" data-name="Rectangle 598" class="cls-7" transform="translate(220 220)">
          <rect class="cls-18" width="360" height="50" rx="10"/>
          <rect class="cls-1" x="1" y="1" width="358" height="48" rx="9"/>
        </g>
        <text id="Demo_ULAB-2" data-name="Demo ULAB" class="cls-8" transform="translate(240 250)"><tspan x="0" y="0">Demo ULAB</tspan></text>
        <text id="Project_owner" data-name="Project owner" class="cls-9" transform="translate(220 209)"><tspan x="0" y="0">Project owner</tspan></text>
      </g>
      <g id="Group_12" data-name="Group 12" transform="translate(0 152.622)">
        <g id="Button_Primary" data-name="Button Primary" transform="translate(1060 499)">
          <g id="Rectangle_1091" data-name="Rectangle 1091" class="cls-11" transform="translate(120 217.378)">
            <rect class="cls-18" width="360" height="79" rx="4"/>
            <rect class="cls-1" x="1" y="1" width="358" height="77" rx="3"/>
          </g>
          <text id="START_STREAM" data-name="START STREAM" class="cls-12" transform="translate(300 267.378)"><tspan x="-116.382" y="0">START STREAM</tspan></text>
        </g>
      </g>
    </g>
    <g id="Dropdown_3" data-name="Dropdown 3" transform="translate(651 709)">
      <g id="Rectangle_614" data-name="Rectangle 614" class="cls-13" transform="translate(857 390)">
        <rect class="cls-18" width="360" height="150" rx="10"/>
        <rect class="cls-1" x="1" y="1" width="358" height="148" rx="9"/>
      </g>
      <rect id="Rectangle_617" data-name="Rectangle 617" class="cls-14" width="356" height="48" transform="translate(859 442)"/>
      <rect id="Rectangle_615" data-name="Rectangle 615" class="cls-15" width="360" height="2" transform="translate(857 440)"/>
      <rect id="Rectangle_616" data-name="Rectangle 616" class="cls-15" width="360" height="2" transform="translate(857 490)"/>
      <text id="web" class="cls-8" transform="translate(877 420)"><tspan x="0" y="0">web</tspan></text>
      <text id="ULAB_youtube" data-name="ULAB youtube" class="cls-8" transform="translate(877 470)"><tspan x="0" y="0">ULAB youtube</tspan></text>
      <text id="custom_IP" data-name="custom IP" class="cls-8" transform="translate(877 520)"><tspan x="0" y="0">custom IP</tspan></text>
    </g>
    <g id="Repeat_Grid_7" data-name="Repeat Grid 7" class="cls-16" transform="translate(328 848)">
      <g transform="translate(-280 -80)">
        <g id="Rectangle_1092" data-name="Rectangle 1092" class="cls-17" transform="translate(280 80)">
          <rect class="cls-18" width="520" height="340"/>
          <rect class="cls-1" x="0.5" y="0.5" width="519" height="339"/>
        </g>
      </g>
      <g transform="translate(257 -80)">
        <g id="Rectangle_1092-2" data-name="Rectangle 1092" class="cls-17" transform="translate(280 80)">
          <rect class="cls-18" width="520" height="340"/>
          <rect class="cls-1" x="0.5" y="0.5" width="519" height="339"/>
        </g>
      </g>
      <g transform="translate(-280 289)">
        <g id="Rectangle_1092-3" data-name="Rectangle 1092" class="cls-17" transform="translate(280 80)">
          <rect class="cls-18" width="520" height="340"/>
          <rect class="cls-1" x="0.5" y="0.5" width="519" height="339"/>
        </g>
      </g>
      <g transform="translate(257 289)">
        <g id="Rectangle_1092-4" data-name="Rectangle 1092" class="cls-17" transform="translate(280 80)">
          <rect class="cls-18" width="520" height="340"/>
          <rect class="cls-1" x="0.5" y="0.5" width="519" height="339"/>
        </g>
      </g>
    </g>
  </g>
</svg>
