<svg xmlns="http://www.w3.org/2000/svg" xmlns:xlink="http://www.w3.org/1999/xlink" viewBox="2249 1708 1920 1080">
  <defs>
    <style>
      .cls-1 {
        clip-path: url(#clip-ulab_editor_3);
      }

      .cls-2, .cls-7 {
        fill: #2699fb;
      }

      .cls-10, .cls-13, .cls-3, .cls-4 {
        fill: #fff;
      }

      .cls-3 {
        font-size: 15px;
        font-family: ArialMT, Arial;
      }

      .cls-4 {
        stroke: #2699fb;
      }

      .cls-5 {
        fill: #707070;
        font-family: SegoeUI, Segoe UI;
      }

      .cls-5, .cls-7 {
        font-size: 30px;
      }

      .cls-6 {
        fill: #f1f9ff;
        stroke: #bce0fd;
        stroke-width: 2px;
      }

      .cls-7, .cls-8, .cls-9 {
        font-family: SegoeUI-Semibold, Segoe UI;
        font-weight: 600;
      }

      .cls-8 {
        font-size: 28px;
      }

      .cls-9 {
        font-size: 26px;
      }

      .cls-10 {
        stroke: #707070;
      }

      .cls-11 {
        stroke: none;
      }

      .cls-12 {
        fill: none;
      }
    </style>
    <clipPath id="clip-ulab_editor_3">
      <rect x="2249" y="1708" width="1920" height="1080"/>
    </clipPath>
  </defs>
  <g id="ulab_editor_3" data-name="ulab/editor – 3" class="cls-1">
    <rect class="cls-13" x="2249" y="1708" width="1920" height="1080"/>
    <g id="Side_bar_2" data-name="Side bar 2" transform="translate(2249 1708)">
      <rect id="Base" class="cls-2" width="160" height="1080"/>
      <text id="CONTROL" class="cls-3" transform="translate(40 102)"><tspan x="0" y="0">CONTROL</tspan></text>
      <text id="EDITOR" class="cls-3" transform="translate(41 168.144)"><tspan x="0" y="0">EDITOR</tspan></text>
      <text id="FORMS" class="cls-3" transform="translate(40 234.287)"><tspan x="0" y="0">FORMS</tspan></text>
      <text id="BLOG" class="cls-3" transform="translate(40 300.431)"><tspan x="0" y="0">BLOG</tspan></text>
      <text id="CONTACT" class="cls-3" transform="translate(40 366.575)"><tspan x="0" y="0">CONTACT</tspan></text>
    </g>
    <g id="timeline" transform="translate(2249 1708)">
      <g id="audio_waveform" data-name="audio waveform" class="cls-4" transform="translate(160 882.908)">
        <rect class="cls-11" width="1760" height="103.092"/>
        <rect class="cls-12" x="0.5" y="0.5" width="1759" height="102.092"/>
      </g>
      <g id="video_timeline" data-name="video timeline" class="cls-4" transform="translate(160 779.815)">
        <rect class="cls-11" width="1760" height="103.092"/>
        <rect class="cls-12" x="0.5" y="0.5" width="1759" height="102.092"/>
      </g>
      <g id="time" class="cls-4" transform="translate(160 985.908)">
        <rect class="cls-11" width="1760" height="73.092"/>
        <rect class="cls-12" x="0.5" y="0.5" width="1759" height="72.092"/>
      </g>
      <text id="audio_waveform_aby_bylo_vizualne_videt_kde_konci_a_zacina_mluveni_" data-name="audio waveform (aby bylo vizualne videt kde konci a zacina mluveni)" class="cls-5" transform="translate(1040 946)"><tspan x="-451.458" y="0">audio waveform (aby bylo vizualne videt kde konci a zacina mluveni)</tspan></text>
      <text id="titulkovací_timeline_generovano_z_tech_poznamek_co_jsou_v_tom_control_" data-name="titulkovací timeline (generovano z tech poznamek co jsou v tom control)" class="cls-5" transform="translate(1040 1034)"><tspan x="-477.627" y="0">titulkovací timeline (generovano z tech poznamek co jsou v tom control)</tspan></text>
      <text id="video_timeline-2" data-name="video timeline" class="cls-5" transform="translate(1040 843)"><tspan x="-93.472" y="0">video timeline</tspan></text>
    </g>
    <g id="project_picker" data-name="project picker" transform="translate(2249 1709)">
      <g id="Rectangle_1093" data-name="Rectangle 1093" class="cls-6" transform="translate(211 29)">
        <rect class="cls-11" width="360" height="50" rx="10"/>
        <rect class="cls-12" x="1" y="1" width="358" height="48" rx="9"/>
      </g>
      <text id="Project_Name" data-name="Project Name" class="cls-7" transform="translate(221 66)"><tspan x="0" y="0">Project Name</tspan></text>
    </g>
    <g id="file_manager_window" data-name="file manager window" transform="translate(2249 1708)">
      <g id="src" class="cls-4" transform="translate(211 108)">
        <rect class="cls-11" width="449" height="568"/>
        <rect class="cls-12" x="0.5" y="0.5" width="448" height="567"/>
      </g>
      <text id="src_files_of_the_videos_and_subtitles_with_some_sort_of_tree_structure" data-name="src files of the videos and subtitles with some sort of tree structure" class="cls-8" transform="translate(262 298.039)"><tspan x="0" y="0">src files of the videos and </tspan><tspan x="0" y="37">subtitles</tspan><tspan x="0" y="74" xml:space="preserve"> with some sort</tspan><tspan x="0" y="111" xml:space="preserve"> of tree structure</tspan></text>
    </g>
    <path id="ic_save_24px" class="cls-2" d="M41.889,3H8.556A5.554,5.554,0,0,0,3,8.556V47.444A5.554,5.554,0,0,0,8.556,53H47.444A5.572,5.572,0,0,0,53,47.444V14.111ZM28,47.444a8.333,8.333,0,1,1,8.333-8.333A8.322,8.322,0,0,1,28,47.444Zm8.333-27.778H8.556V8.556H36.333Z" transform="translate(2843 1735)"/>
    <g id="Group_18" data-name="Group 18" transform="translate(2249 1732)">
      <g id="titulky" transform="translate(-193.544 -65)">
        <g id="titulky-2" data-name="titulky" class="cls-4" transform="translate(924 637)">
          <rect class="cls-11" width="1118.097" height="80"/>
          <rect class="cls-12" x="0.5" y="0.5" width="1117.097" height="79"/>
        </g>
        <text id="titulky-3" data-name="titulky" class="cls-9" transform="translate(1407.698 688)"><tspan x="0" y="0">titulky</tspan></text>
      </g>
    </g>
    <g id="playback_tools" data-name="playback tools" transform="translate(-1022.363 1655)">
      <path id="ic_fast_rewind_24px" class="cls-2" d="M34.375,51V6L2.5,28.5ZM36.25,28.5,68.125,51V6Z" transform="translate(4380.563 754)"/>
      <path id="ic_fast_forward_24px" class="cls-2" d="M4,51,35.875,28.5,4,6ZM37.75,6V51L69.625,28.5Z" transform="translate(4668.862 754)"/>
      <path id="ic_skip_previous_24px" class="cls-2" d="M6,6h7.5V51H6ZM19.125,28.5,51,51V6Z" transform="translate(4284.363 754)"/>
      <path id="ic_stop_24px" class="cls-2" d="M6,6H51V51H6Z" transform="translate(4490.462 754)"/>
      <path id="ic_skip_next_24px" class="cls-2" d="M6,51,37.875,28.5,6,6ZM43.5,6V51H51V6Z" transform="translate(4780.262 754)"/>
      <path id="ic_play_arrow_24px" class="cls-2" d="M8,5V50L43.357,27.5Z" transform="translate(4581.163 755)"/>
    </g>
    <g id="edit_tools" data-name="edit tools" transform="translate(2249 1709)">
      <path id="ic_content_copy_24px" class="cls-2" d="M33.818,1H6.545A4.559,4.559,0,0,0,2,5.545V37.364H6.545V5.545H33.818Zm6.818,9.091h-25a4.559,4.559,0,0,0-4.545,4.545V46.455A4.559,4.559,0,0,0,15.636,51h25a4.559,4.559,0,0,0,4.545-4.545V14.636A4.559,4.559,0,0,0,40.636,10.091Zm0,36.364h-25V14.636h25Z" transform="translate(306 702)"/>
      <path id="ic_volume_down_24px" class="cls-2" d="M47.188,29a14.064,14.064,0,0,0-7.812-12.594V41.563A13.981,13.981,0,0,0,47.188,29ZM5,19.625v18.75H17.5L33.125,54V4L17.5,19.625Z" transform="translate(462 699)"/>
      <path id="ic_volume_up_24px" class="cls-2" d="M3,19.678v17.1H14.4L28.656,51.035V5.425L14.4,19.678ZM41.483,28.23a12.829,12.829,0,0,0-7.127-11.488V39.69A12.754,12.754,0,0,0,41.483,28.23Zm-7.127-25V9.1a19.961,19.961,0,0,1,0,38.255V53.23a25.638,25.638,0,0,0,0-50Z" transform="translate(545 699.77)"/>
      <path id="ic_volume_off_24px" class="cls-2" d="M40.5,28a12.5,12.5,0,0,0-6.944-11.194v6.139l6.806,6.806A11.756,11.756,0,0,0,40.5,28Zm6.944,0a19.008,19.008,0,0,1-1.5,7.333l4.194,4.194A24.434,24.434,0,0,0,53,28,24.991,24.991,0,0,0,33.556,3.639V9.361A19.459,19.459,0,0,1,47.444,28ZM6.528,3,3,6.528,16.139,19.667H3V36.333H14.111L28,50.222V31.528L39.806,43.333a19.232,19.232,0,0,1-6.25,3.278v5.722a24.971,24.971,0,0,0,10.25-5.028L49.472,53,53,49.472l-25-25ZM28,5.778l-5.806,5.806L28,17.389Z" transform="translate(635 700)"/>
      <path id="ic_delete_24px" class="cls-2" d="M7.778,47.444A5.572,5.572,0,0,0,13.333,53H35.556a5.572,5.572,0,0,0,5.556-5.556V14.111H7.778ZM43.889,5.778H34.167L31.389,3H17.5L14.722,5.778H5v5.556H43.889Z" transform="translate(385 700)"/>
      <path id="ic_content_cut_24px" class="cls-2" d="M21.1,16.1A9.742,9.742,0,0,0,22,12,10,10,0,1,0,12,22a9.742,9.742,0,0,0,4.1-.9L22,27l-5.9,5.9A9.742,9.742,0,0,0,12,32,10,10,0,1,0,22,42a9.742,9.742,0,0,0-.9-4.1L27,32,44.5,49.5H52V47ZM12,17a5,5,0,1,1,5-5A5,5,0,0,1,12,17Zm0,30a5,5,0,1,1,5-5A5,5,0,0,1,12,47ZM27,28.25A1.25,1.25,0,1,1,28.25,27,1.238,1.238,0,0,1,27,28.25ZM44.5,4.5l-15,15,5,5L52,7V4.5Z" transform="translate(217 701)"/>
      <path id="ic_video_call_24px" class="cls-2" d="M61.333,24.75V10.167A4.179,4.179,0,0,0,57.167,6h-50A4.179,4.179,0,0,0,3,10.167V51.833A4.179,4.179,0,0,0,7.167,56h50a4.179,4.179,0,0,0,4.167-4.167V37.25L78,53.917V8.083Zm-12.5,10.417h-12.5v12.5H28v-12.5H15.5V26.833H28v-12.5h8.333v12.5h12.5Z" transform="translate(724 695)"/>
    </g>
    <g id="Group_19" data-name="Group 19" transform="translate(2331 1711)">
      <g id="Rectangle_1096" data-name="Rectangle 1096" class="cls-10" transform="translate(739 175)">
        <rect class="cls-11" width="443" height="332"/>
        <rect class="cls-12" x="0.5" y="0.5" width="442" height="331"/>
      </g>
      <g id="Rectangle_1097" data-name="Rectangle 1097" class="cls-10" transform="translate(1233 175)">
        <rect class="cls-11" width="443" height="332"/>
        <rect class="cls-12" x="0.5" y="0.5" width="442" height="331"/>
      </g>
    </g>
  </g>
</svg>
