<?xml version="1.0" encoding="UTF-8" standalone="no"?>
<svg
   xmlns:dc="http://purl.org/dc/elements/1.1/"
   xmlns:cc="http://creativecommons.org/ns#"
   xmlns:rdf="http://www.w3.org/1999/02/22-rdf-syntax-ns#"
   xmlns:svg="http://www.w3.org/2000/svg"
   xmlns="http://www.w3.org/2000/svg"
   xmlns:sodipodi="http://sodipodi.sourceforge.net/DTD/sodipodi-0.dtd"
   xmlns:inkscape="http://www.inkscape.org/namespaces/inkscape"
   viewBox="2249 508 1920 1080"
   version="1.1"
   id="svg232"
   sodipodi:docname="ulab-editor GÇô 1.svg"
   inkscape:version="0.92.3 (2405546, 2018-03-11)">
  <metadata
     id="metadata236">
    <rdf:RDF>
      <cc:Work
         rdf:about="">
        <dc:format>image/svg+xml</dc:format>
        <dc:type
           rdf:resource="http://purl.org/dc/dcmitype/StillImage" />
      </cc:Work>
    </rdf:RDF>
  </metadata>
  <sodipodi:namedview
     pagecolor="#ffffff"
     bordercolor="#666666"
     borderopacity="1"
     objecttolerance="10"
     gridtolerance="10"
     guidetolerance="10"
     inkscape:pageopacity="0"
     inkscape:pageshadow="2"
     inkscape:window-width="1366"
     inkscape:window-height="706"
     id="namedview234"
     showgrid="false"
     inkscape:zoom="0.33587572"
     inkscape:cx="943.45907"
     inkscape:cy="524.71536"
     inkscape:window-x="-8"
     inkscape:window-y="-8"
     inkscape:window-maximized="1"
     inkscape:current-layer="svg232" />
  <defs
     id="defs129">
    <style
       id="style124">
      .cls-1 {
        clip-path: url(#clip-ulab_editor_1);
      }

      .cls-2, .cls-7 {
        fill: #2699fb;
      }

      .cls-10, .cls-14, .cls-3, .cls-4 {
        fill: #fff;
      }

      .cls-3 {
        font-size: 15px;
        font-family: ArialMT, Arial;
      }

      .cls-4 {
        stroke: #2699fb;
      }

      .cls-13, .cls-5 {
        fill: #707070;
      }

      .cls-5, .cls-7 {
        font-size: 30px;
      }

      .cls-5 {
        font-family: SegoeUI, Segoe UI;
      }

      .cls-6 {
        fill: #f1f9ff;
        stroke: #bce0fd;
        stroke-width: 2px;
      }

      .cls-7, .cls-8, .cls-9 {
        font-family: SegoeUI-Semibold, Segoe UI;
        font-weight: 600;
      }

      .cls-8 {
        font-size: 28px;
      }

      .cls-9 {
        font-size: 26px;
      }

      .cls-11, .cls-13 {
        stroke: none;
      }

      .cls-12 {
        fill: none;
      }
    </style>
    <clipPath
       id="clip-ulab_editor_1">
      <rect
         x="2249"
         y="508"
         width="1920"
         height="1080"
         id="rect126" />
    </clipPath>
  </defs>
  <g
     id="ulab_editor_1"
     data-name="ulab/editor – 1"
     class="cls-1"
     clip-path="url(#clip-ulab_editor_1)">
    <rect
       class="cls-14"
       x="2249"
       y="508"
       width="1920"
       height="1080"
       id="rect131" />
    <g
       id="Side_bar_2"
       data-name="Side bar 2"
       transform="translate(2249 508)">
      <rect
         id="Base"
         class="cls-2"
         width="160"
         height="1080" />
      <text
         id="CONTROL"
         class="cls-3"
         transform="translate(40 102)">
        <tspan
           x="0"
           y="0"
           id="tspan134">CONTROL</tspan>
      </text>
      <text
         id="EDITOR"
         class="cls-3"
         transform="translate(41 168.144)">
        <tspan
           x="0"
           y="0"
           id="tspan137">EDITOR</tspan>
      </text>
      <text
         id="FORMS"
         class="cls-3"
         transform="translate(40 234.287)">
        <tspan
           x="0"
           y="0"
           id="tspan140">FORMS</tspan>
      </text>
      <text
         id="BLOG"
         class="cls-3"
         transform="translate(40 300.431)">
        <tspan
           x="0"
           y="0"
           id="tspan143">BLOG</tspan>
      </text>
      <text
         id="CONTACT"
         class="cls-3"
         transform="translate(40 366.575)">
        <tspan
           x="0"
           y="0"
           id="tspan146">CONTACT</tspan>
      </text>
    </g>
    <g
       id="timeline"
       transform="translate(2249 508)">
      <g
         id="audio_waveform"
         data-name="audio waveform"
         class="cls-4"
         transform="translate(160 882.908)">
        <rect
           class="cls-11"
           width="1760"
           height="103.092"
           id="rect150" />
        <rect
           class="cls-12"
           x="0.5"
           y="0.5"
           width="1759"
           height="102.092"
           id="rect152" />
      </g>
      <g
         id="video_timeline"
         data-name="video timeline"
         class="cls-4"
         transform="translate(160 779.815)">
        <rect
           class="cls-11"
           width="1760"
           height="103.092"
           id="rect155" />
        <rect
           class="cls-12"
           x="0.5"
           y="0.5"
           width="1759"
           height="102.092"
           id="rect157" />
      </g>
      <g
         id="time"
         class="cls-4"
         transform="translate(160 985.908)">
        <rect
           class="cls-11"
           width="1760"
           height="73.092"
           id="rect160" />
        <rect
           class="cls-12"
           x="0.5"
           y="0.5"
           width="1759"
           height="72.092"
           id="rect162" />
      </g>
      <text
         id="audio_waveform_aby_bylo_vizualne_videt_kde_konci_a_zacina_mluveni_"
         data-name="audio waveform (aby bylo vizualne videt kde konci a zacina mluveni)"
         class="cls-5"
         style="font-size:30px;font-family:SegoeUI, 'Segoe UI';fill:#707070"
         x="1171.0009"
         y="946">
        <tspan
           x="719.54285"
           y="946"
           id="tspan165">audio waveform (mainly to see talking regions)</tspan>
      </text>
      <text
         id="titulkovací_timeline_generovano_z_tech_poznamek_co_jsou_v_tom_control_"
         data-name="titulkovací timeline (generovano z tech poznamek co jsou v tom control)"
         class="cls-5"
         style="font-size:30px;font-family:SegoeUI, 'Segoe UI';fill:#707070"
         x="1096.5686"
         y="1034">
        <tspan
           x="618.94153"
           y="1034"
           id="tspan168">subtitle timeline (generated from comments during streaming)</tspan>
      </text>
      <text
         id="video_timeline-2"
         data-name="video timeline"
         class="cls-5"
         transform="translate(1040 843)">
        <tspan
           x="-93.472"
           y="0"
           id="tspan171">video timeline</tspan>
      </text>
    </g>
    <g
       id="project_picker"
       data-name="project picker"
       transform="translate(2249 509)">
      <g
         id="Rectangle_1093"
         data-name="Rectangle 1093"
         class="cls-6"
         transform="translate(211 29)">
        <rect
           class="cls-11"
           width="360"
           height="50"
           rx="10"
           id="rect175" />
        <rect
           class="cls-12"
           x="1"
           y="1"
           width="358"
           height="48"
           rx="9"
           id="rect177" />
      </g>
      <text
         id="Project_Name"
         data-name="Project Name"
         class="cls-7"
         transform="translate(221 66)">
        <tspan
           x="0"
           y="0"
           id="tspan180">Project Name</tspan>
      </text>
    </g>
    <g
       id="file_manager_window"
       data-name="file manager window"
       transform="translate(2249 508)">
      <g
         id="src"
         class="cls-4"
         transform="translate(211 108)">
        <rect
           class="cls-11"
           width="449"
           height="568"
           id="rect184" />
        <rect
           class="cls-12"
           x="0.5"
           y="0.5"
           width="448"
           height="567"
           id="rect186" />
      </g>
      <text
         id="src_files_of_the_videos_and_subtitles_with_some_sort_of_tree_structure"
         data-name="src files of the videos and subtitles with some sort of tree structure"
         class="cls-8"
         style="font-weight:600;font-size:28px;font-family:SegoeUI-Semibold, 'Segoe UI'"
         x="337.78949"
         y="394.8811">
        <tspan
           x="337.78949"
           y="394.8811"
           id="tspan189"
           style="font-size:37.33333206px;fill:#666666;-inkscape-font-specification:'SegoeUI-Semibold, Segoe UI';font-family:SegoeUI-Semibold, 'Segoe UI';font-weight:normal;font-style:normal;font-stretch:normal;font-variant:normal">Source files</tspan>
      </text>
    </g>
    <path
       id="ic_save_24px"
       class="cls-2"
       d="M41.889,3H8.556A5.554,5.554,0,0,0,3,8.556V47.444A5.554,5.554,0,0,0,8.556,53H47.444A5.572,5.572,0,0,0,53,47.444V14.111ZM28,47.444a8.333,8.333,0,1,1,8.333-8.333A8.322,8.322,0,0,1,28,47.444Zm8.333-27.778H8.556V8.556H36.333Z"
       transform="translate(2843 535)" />
    <g
       id="Group_18"
       data-name="Group 18"
       transform="translate(2248.544 532)">
      <g
         id="titulky"
         transform="translate(-193.544 -65)">
        <g
           id="titulky-2"
           data-name="titulky"
           class="cls-4"
           transform="translate(924 637)">
          <rect
             class="cls-11"
             width="1118.097"
             height="80"
             id="rect200" />
          <rect
             class="cls-12"
             x="0.5"
             y="0.5"
             width="1117.097"
             height="79"
             id="rect202" />
        </g>
        <text
           id="titulky-3"
           data-name="titulky"
           class="cls-9"
           transform="translate(1407.698,688)"
           style="font-weight:600;font-size:26px;font-family:SegoeUI-Semibold, 'Segoe UI'">
          <tspan
             x="0"
             y="0"
             id="tspan205"
             style="fill:#666666;font-size:29.33333333px;-inkscape-font-specification:'SegoeUI-Semibold, Segoe UI';font-family:SegoeUI-Semibold, 'Segoe UI';font-weight:normal;font-style:normal;font-stretch:normal;font-variant:normal">subtitles</tspan>
        </text>
      </g>
    </g>
    <g
       id="playback_tools"
       data-name="playback tools"
       transform="translate(-1022.363 455)">
      <path
         id="ic_fast_rewind_24px"
         class="cls-2"
         d="M34.375,51V6L2.5,28.5ZM36.25,28.5,68.125,51V6Z"
         transform="translate(4380.563 754)" />
      <path
         id="ic_fast_forward_24px"
         class="cls-2"
         d="M4,51,35.875,28.5,4,6ZM37.75,6V51L69.625,28.5Z"
         transform="translate(4668.862 754)" />
      <path
         id="ic_skip_previous_24px"
         class="cls-2"
         d="M6,6h7.5V51H6ZM19.125,28.5,51,51V6Z"
         transform="translate(4284.363 754)" />
      <path
         id="ic_stop_24px"
         class="cls-2"
         d="M6,6H51V51H6Z"
         transform="translate(4490.462 754)" />
      <path
         id="ic_skip_next_24px"
         class="cls-2"
         d="M6,51,37.875,28.5,6,6ZM43.5,6V51H51V6Z"
         transform="translate(4780.262 754)" />
      <path
         id="ic_play_arrow_24px"
         class="cls-2"
         d="M8,5V50L43.357,27.5Z"
         transform="translate(4581.163 755)" />
    </g>
    <g
       id="edit_tools"
       data-name="edit tools"
       transform="translate(2249 509)">
      <path
         id="ic_content_copy_24px"
         class="cls-2"
         d="M33.818,1H6.545A4.559,4.559,0,0,0,2,5.545V37.364H6.545V5.545H33.818Zm6.818,9.091h-25a4.559,4.559,0,0,0-4.545,4.545V46.455A4.559,4.559,0,0,0,15.636,51h25a4.559,4.559,0,0,0,4.545-4.545V14.636A4.559,4.559,0,0,0,40.636,10.091Zm0,36.364h-25V14.636h25Z"
         transform="translate(306 702)" />
      <path
         id="ic_volume_down_24px"
         class="cls-2"
         d="M47.188,29a14.064,14.064,0,0,0-7.812-12.594V41.563A13.981,13.981,0,0,0,47.188,29ZM5,19.625v18.75H17.5L33.125,54V4L17.5,19.625Z"
         transform="translate(462 699)" />
      <path
         id="ic_volume_up_24px"
         class="cls-2"
         d="M3,19.678v17.1H14.4L28.656,51.035V5.425L14.4,19.678ZM41.483,28.23a12.829,12.829,0,0,0-7.127-11.488V39.69A12.754,12.754,0,0,0,41.483,28.23Zm-7.127-25V9.1a19.961,19.961,0,0,1,0,38.255V53.23a25.638,25.638,0,0,0,0-50Z"
         transform="translate(545 699.77)" />
      <path
         id="ic_volume_off_24px"
         class="cls-2"
         d="M40.5,28a12.5,12.5,0,0,0-6.944-11.194v6.139l6.806,6.806A11.756,11.756,0,0,0,40.5,28Zm6.944,0a19.008,19.008,0,0,1-1.5,7.333l4.194,4.194A24.434,24.434,0,0,0,53,28,24.991,24.991,0,0,0,33.556,3.639V9.361A19.459,19.459,0,0,1,47.444,28ZM6.528,3,3,6.528,16.139,19.667H3V36.333H14.111L28,50.222V31.528L39.806,43.333a19.232,19.232,0,0,1-6.25,3.278v5.722a24.971,24.971,0,0,0,10.25-5.028L49.472,53,53,49.472l-25-25ZM28,5.778l-5.806,5.806L28,17.389Z"
         transform="translate(635 700)" />
      <path
         id="ic_delete_24px"
         class="cls-2"
         d="M7.778,47.444A5.572,5.572,0,0,0,13.333,53H35.556a5.572,5.572,0,0,0,5.556-5.556V14.111H7.778ZM43.889,5.778H34.167L31.389,3H17.5L14.722,5.778H5v5.556H43.889Z"
         transform="translate(385 700)" />
      <path
         id="ic_content_cut_24px"
         class="cls-2"
         d="M21.1,16.1A9.742,9.742,0,0,0,22,12,10,10,0,1,0,12,22a9.742,9.742,0,0,0,4.1-.9L22,27l-5.9,5.9A9.742,9.742,0,0,0,12,32,10,10,0,1,0,22,42a9.742,9.742,0,0,0-.9-4.1L27,32,44.5,49.5H52V47ZM12,17a5,5,0,1,1,5-5A5,5,0,0,1,12,17Zm0,30a5,5,0,1,1,5-5A5,5,0,0,1,12,47ZM27,28.25A1.25,1.25,0,1,1,28.25,27,1.238,1.238,0,0,1,27,28.25ZM44.5,4.5l-15,15,5,5L52,7V4.5Z"
         transform="translate(217 701)" />
      <path
         id="ic_video_call_24px"
         class="cls-2"
         d="M61.333,24.75V10.167A4.179,4.179,0,0,0,57.167,6h-50A4.179,4.179,0,0,0,3,10.167V51.833A4.179,4.179,0,0,0,7.167,56h50a4.179,4.179,0,0,0,4.167-4.167V37.25L78,53.917V8.083Zm-12.5,10.417h-12.5v12.5H28v-12.5H15.5V26.833H28v-12.5h8.333v12.5h12.5Z"
         transform="translate(724 695)" />
    </g>
    <g
       id="Group_19"
       data-name="Group 19"
       transform="translate(2363 512)">
      <g
         id="Path_198"
         data-name="Path 198"
         class="cls-10"
         transform="translate(860 64.593)">
        <path
           class="cls-11"
           d="M 629.8507690429688 471.9073791503906 L 0.4999999105930328 471.9073791503906 L 0.4999999105930328 0.4999819993972778 L 629.8507690429688 0.4999819993972778 L 629.8507690429688 471.9073791503906 Z"
           id="path225" />
        <path
           class="cls-13"
           d="M 629.3507690429688 471.4073791503906 L 629.3507690429688 0.9999819993972778 L 0.9999998807907104 0.9999819993972778 L 0.9999998807907104 471.4073791503906 L 629.3507690429688 471.4073791503906 M 630.3507690429688 472.4073791503906 L -9.390026889377623e-08 472.4073791503906 L -9.390026889377623e-08 -1.799128585844301e-05 L 630.3507690429688 -1.799128585844301e-05 L 630.3507690429688 472.4073791503906 Z"
           id="path227" />
      </g>
    </g>
  </g>
  <text
     y="832.61194"
     x="3510.5144"
     id="video_timeline-2-1"
     data-name="video timeline"
     class="cls-5"
     style="font-size:30px;font-family:SegoeUI, 'Segoe UI';fill:#707070">
    <tspan
       x="3417.0425"
       y="832.61194"
       id="tspan171-7"
       style="font-size:40px">Video preview</tspan>
  </text>
  <path
     id="path5689"
     d="m 4094.7187,1233.8739 -5.7657,-0.9444 c -0.3376,-1.1595 -0.7991,-2.274 -1.3767,-3.3288 l 3.3659,-4.807 c 0.2721,-0.3881 0.2253,-0.917 -0.1094,-1.2533 l -3.794,-3.8001 c -0.3385,-0.3382 -0.8712,-0.3822 -1.2595,-0.1017 l -4.7249,3.4032 c -1.0624,-0.5885 -2.1844,-1.0558 -3.3482,-1.3951 l -1.006,-5.7543 c -0.081,-0.4672 -0.4867,-0.8094 -0.9608,-0.8094 h -5.3659 c -0.478,0 -0.8858,0.347 -0.9629,0.8202 l -0.9326,5.723 c -1.1708,0.3373 -2.2948,0.7997 -3.3533,1.3804 l -4.7121,-3.3728 c -0.3892,-0.2786 -0.919,-0.2336 -1.2576,0.1036 l -3.7921,3.8001 c -0.3346,0.3353 -0.3815,0.8632 -0.1092,1.2513 l 3.3161,4.7542 c -0.5903,1.0706 -1.0605,2.2036 -1.4031,3.3827 l -5.6886,0.9491 c -0.4703,0.079 -0.8156,0.487 -0.8156,0.964 v 5.377 c 0,0.4741 0.3394,0.8798 0.8048,0.963 l 5.6887,1.0108 c 0.3405,1.1761 0.8108,2.3092 1.4029,3.3826 l -3.357,4.7054 c -0.2771,0.388 -0.2332,0.9208 0.1034,1.26 l 3.7933,3.804 c 0.3344,0.3353 0.8622,0.3823 1.2495,0.1095 l 4.7513,-3.3347 c 1.0664,0.5876 2.1931,1.0539 3.3611,1.3922 l 0.9521,5.7299 c 0.077,0.4701 0.4838,0.8153 0.9609,0.8153 h 5.3659 c 0.4731,0 0.878,-0.3402 0.9599,-0.8066 l 1.0196,-5.7581 c 1.1698,-0.3452 2.2907,-0.8145 3.3463,-1.4029 l 4.7852,3.3639 c 0.3884,0.2747 0.9151,0.2268 1.2509,-0.1085 l 3.7931,-3.804 c 0.3375,-0.3392 0.3814,-0.8739 0.1015,-1.2629 l -3.4127,-4.7484 c 0.5786,-1.0559 1.0381,-2.1724 1.3727,-3.3318 l 5.7736,-1.0157 c 0.4673,-0.082 0.8068,-0.4889 0.8068,-0.963 v -5.377 c 0,-0.479 -0.3453,-0.8876 -0.8176,-0.9649 z m -21.6193,10.5378 c -3.7716,0 -6.8293,-3.0638 -6.8293,-6.8434 0,-3.7794 3.0577,-6.8432 6.8293,-6.8432 3.7716,0 6.8291,3.0638 6.8291,6.8432 0,3.7796 -3.0575,6.8434 -6.8291,6.8434 z"
     inkscape:connector-curvature="0"
     style="fill:#2699fb;fill-opacity:1;stroke-width:0.97661495" />
</svg>
